<svg width="21" height="14" viewBox="0 0 21 14" fill="none" xmlns="http://www.w3.org/2000/svg">
<path d="M19.9871 1.40854C19.9871 1.38609 20.0028 1.36424 20.0018 1.34204L13.8984 7.1196L19.9945 12.7126C19.998 12.6727 19.9871 12.6324 19.9871 12.5916V1.40854Z" fill="white"/>
<path d="M12.9653 8.00868L10.4738 10.3638C10.3477 10.4829 10.1848 10.5427 10.0219 10.5427C9.86238 10.5427 9.70284 10.4855 9.57763 10.3708L7.09286 8.0961L0.957031 13.9064C1.10623 13.9591 1.26637 14 1.43407 14H18.6098C18.8589 14 19.0924 13.9255 19.2955 13.8143L12.9653 8.00868Z" fill="white"/>
<path d="M10.013 9.02078L19.3276 0.205817C19.1167 0.0826341 18.8712 0 18.6081 0H1.43232C1.08971 0 0.775765 0.130695 0.53125 0.330024L10.013 9.02078Z" fill="white"/>
<path d="M0 1.62323V12.5914C0 12.7173 0.0294565 12.8387 0.061433 12.9547L6.12114 7.22186L0 1.62323Z" fill="white"/>
</svg>
