<svg width="20" height="18" viewBox="0 0 20 18" fill="none" xmlns="http://www.w3.org/2000/svg">
<path fill-rule="evenodd" clip-rule="evenodd" d="M0 9C0 4.0302 4.478 0 10 0C15.522 0 20 4.0302 20 9C20 13.9698 15.522 18 10 18C4.478 18 0 13.9698 0 9ZM4.65866 13.6055H7.09412V7.01106H4.65866V13.6055ZM5.87646 6.1106H5.8606C5.04333 6.1106 4.51477 5.60426 4.51477 4.97145C4.51477 4.32436 5.05951 3.83203 5.89264 3.83203C6.72577 3.83203 7.23846 4.32436 7.25433 4.97145C7.25433 5.60426 6.72577 6.1106 5.87646 6.1106ZM13.4407 13.6055H15.8759V9.82425C15.8759 7.79878 14.6744 6.85629 13.0721 6.85629C11.7799 6.85629 11.2009 7.49542 10.8772 7.94476V7.01106H8.44193C8.47382 7.62973 8.44193 13.6055 8.44193 13.6055H10.8772V9.92285C10.8772 9.72578 10.8929 9.52885 10.9573 9.38795C11.1334 8.99423 11.5341 8.58636 12.2069 8.58636C13.0881 8.58636 13.4407 9.19102 13.4407 10.0776V13.6055Z" fill="white"/>
</svg>
