<svg width="13" height="20" viewBox="0 0 13 20" fill="none" xmlns="http://www.w3.org/2000/svg">
<path fill-rule="evenodd" clip-rule="evenodd" d="M0 6.66668C0 2.99074 2.91597 0 6.5 0C10.084 0 13 2.99074 13 6.66664C13 7.77016 12.731 8.86434 12.2216 9.83152L6.85546 19.7852C6.78404 19.9178 6.64796 20 6.5 20C6.35204 20 6.21596 19.9178 6.14454 19.7852L0.780379 9.8348C0.269 8.86434 0 7.7702 0 6.66668ZM3.25002 6.66668C3.25002 8.50465 4.70798 10 6.5 10C8.29202 10 9.74998 8.50465 9.74998 6.66668C9.74998 4.82871 8.29202 3.33336 6.5 3.33336C4.70798 3.33336 3.25002 4.82871 3.25002 6.66668Z" fill="white"/>
</svg>
