<svg width="40" height="40" viewBox="0 0 40 40" fill="none" xmlns="http://www.w3.org/2000/svg">
<mask id="mask0" mask-type="alpha" maskUnits="userSpaceOnUse" x="0" y="0" width="40" height="40">
<path fill-rule="evenodd" clip-rule="evenodd" d="M0 0H40V40H0V0Z" fill="#00B287"/>
</mask>
<g mask="url(#mask0)">
<path fill-rule="evenodd" clip-rule="evenodd" d="M11.2167 36.6698C11.2167 36.9948 10.9529 37.2586 10.6279 37.2586H9.41163C9.08628 37.2586 8.82283 36.9948 8.82283 36.6698C8.82283 36.3448 9.08628 36.081 9.41163 36.081H10.6279C10.9529 36.081 11.2167 36.3448 11.2167 36.6698ZM7.74483 36.6698C7.74483 36.9948 7.48105 37.2586 7.15604 37.2586H3.57651C3.25149 37.2586 2.98771 36.9948 2.98771 36.6698C2.98771 36.3448 3.25149 36.081 3.57651 36.081H7.15604C7.48105 36.081 7.74483 36.3448 7.74483 36.6698ZM40 31.9453V33.4587C40 33.7837 39.7362 34.0475 39.4112 34.0475C39.0862 34.0475 38.8224 33.7837 38.8224 33.4587V31.9453C38.8224 31.6199 39.0862 31.3565 39.4112 31.3565C39.7362 31.3565 40 31.6199 40 31.9453ZM32.6572 24.3381H38.8224V20.589H32.6572V24.3381ZM31.4796 28.2376L30.2354 26.9358C30.1274 26.8228 29.9791 26.7575 29.8226 26.7541C29.6709 26.7478 29.5154 26.8097 29.4024 26.9177L27.9314 28.3264V20.589H31.4796V28.2376ZM20.5886 24.3381H26.7538V20.589H20.5886V24.3381ZM19.411 38.8224H1.17759V25.5153H7.34277V29.7055C7.34277 29.9414 7.48341 30.1547 7.70042 30.2472C7.91777 30.3401 8.16843 30.2936 8.33867 30.1308L10.3803 28.1757L12.2318 30.1126C12.3452 30.2311 12.4996 30.2943 12.6574 30.2943C12.7311 30.2943 12.8054 30.2805 12.8764 30.2519C13.0998 30.1624 13.2462 29.9461 13.2462 29.7055V25.5153H19.411V38.8224ZM1.17759 24.3377H7.34277V20.5886H1.17759V24.3377ZM13.2462 24.3381H19.4114V20.589H13.2462V24.3381ZM8.52036 20.589H12.0686V28.2376L10.8241 26.9358C10.7161 26.8228 10.5677 26.7575 10.4116 26.7541C10.2605 26.7478 10.104 26.8097 9.99134 26.9177L8.52036 28.3264V20.589ZM22.9515 4.9267H29.1167V1.17759H22.9515V4.9267ZM21.774 8.82653L20.5297 7.52446C20.4217 7.41174 20.2734 7.34647 20.1173 7.34277C19.9625 7.33739 19.8097 7.39829 19.697 7.50629L18.226 8.91536V1.17759H21.774V8.82653ZM10.8833 4.9267H17.0485V1.17759H10.8833V4.9267ZM39.4112 19.4114H30.2943V0.588794C30.2943 0.26378 30.0305 0 29.7055 0H10.2945C9.96913 0 9.70569 0.26378 9.70569 0.588794V11.8711C9.70569 12.1965 9.96913 12.4599 10.2945 12.4599C10.6195 12.4599 10.8833 12.1965 10.8833 11.8711V6.10428H17.0485V10.2945C17.0485 10.5303 17.1891 10.7433 17.4061 10.8358C17.6231 10.9287 17.8745 10.8826 18.0444 10.7198L20.0856 8.76463L21.9371 10.7013C22.0505 10.8197 22.2053 10.8833 22.3631 10.8833C22.4368 10.8833 22.5111 10.8695 22.5821 10.8409C22.8052 10.7514 22.9515 10.535 22.9515 10.2945V6.10428H29.1167V19.4114H10.8833V14.4544C10.8833 14.129 10.6195 13.8656 10.2945 13.8656C9.96913 13.8656 9.70569 14.129 9.70569 14.4544V19.4114H0.588794C0.26378 19.4114 0 19.6748 0 20.0002V39.4112C0 39.7362 0.26378 40 0.588794 40H39.4112C39.7362 40 40 39.7362 40 39.4112V36.23C40 35.905 39.7362 35.6412 39.4112 35.6412C39.0862 35.6412 38.8224 35.905 38.8224 36.23V38.8224H20.5886V25.5153H26.7538V29.7055C26.7538 29.9414 26.8948 30.1547 27.1115 30.2472C27.3291 30.3401 27.5798 30.2936 27.75 30.1308L29.7913 28.1757L31.6428 30.1126C31.7562 30.2311 31.911 30.2943 32.0688 30.2943C32.1421 30.2943 32.2168 30.2805 32.2875 30.2519C32.5109 30.1624 32.6572 29.9461 32.6572 29.7055V25.5153H38.8224V29.0326C38.8224 29.3576 39.0862 29.6214 39.4112 29.6214C39.7362 29.6214 40 29.3576 40 29.0326V20.0002C40 19.6748 39.7362 19.4114 39.4112 19.4114Z" fill="#00B287"/>
</g>
</svg>
