<svg width="35" height="35" viewBox="0 0 35 35" fill="none" xmlns="http://www.w3.org/2000/svg">
<path fill-rule="evenodd" clip-rule="evenodd" d="M0 9.56239V8.43761C0 8.1958 0.224 8 0.5 8C0.776 8 1 8.1958 1 8.43761V9.56239C1 9.8042 0.776 10 0.5 10C0.224 10 0 9.8042 0 9.56239ZM35 20.223V22.456C35 24.8693 33.042 26.8328 30.6356 26.8328H16.5961L10.3186 34.8037C10.2188 34.93 10.0687 35 9.91412 35C9.8576 35 9.80078 34.9908 9.74514 34.9717C9.53788 34.8996 9.39892 34.7036 9.39892 34.4834V26.8328H4.36444C1.95774 26.8328 0 24.8693 0 22.456V12.5166C0 12.2314 0.230807 12 0.515195 12C0.799583 12 1.03039 12.2314 1.03039 12.5166V22.456C1.03039 24.2996 2.52622 25.7995 4.36444 25.7995H9.91412C10.1988 25.7995 10.4293 26.031 10.4293 26.3161V32.9955L15.9419 25.9958C16.0396 25.8721 16.1886 25.7995 16.3464 25.7995H30.6356C32.4738 25.7995 33.9696 24.2996 33.9696 22.456V20.223C33.9696 19.9376 34.2001 19.7064 34.4848 19.7064C34.7692 19.7064 35 19.9376 35 20.223ZM35 4.24225V17.4992C35 17.7759 34.7692 18 34.4848 18C34.2001 18 33.9696 17.7759 33.9696 17.4992V4.24225C33.9696 2.45521 32.4738 1.00154 30.6356 1.00154H4.36444C2.52622 1.00154 1.03039 2.45521 1.03039 4.24225V6.10454C1.03039 6.38125 0.799583 6.60531 0.515195 6.60531C0.230807 6.60531 0 6.38125 0 6.10454V4.24225C0 1.90293 1.95774 0 4.36444 0H30.6356C33.042 0 35 1.90293 35 4.24225ZM23.7263 11.8696C24.1128 11.8696 24.4738 12.0465 24.7164 12.3547C24.9596 12.6626 25.0524 13.062 24.9714 13.4495L23.6048 19.969C23.4797 20.5664 22.9561 21 22.3601 21H15.2734C14.5713 21 14 20.4143 14 19.6947V12.2477C14 11.746 14.1116 11.2417 14.3228 10.7889L16.8727 5.31799C16.9972 5.12133 17.2143 5 17.444 5C17.8193 5 18.1248 5.31311 18.1248 5.69809V11.3665C18.1248 11.6445 18.3447 11.8696 18.6156 11.8696H23.7263ZM10 20V13H12.9932V19.8601C12.9932 19.9072 12.9974 19.9535 13 20H10ZM16.9037 4C16.2878 4 15.7075 4.31461 15.3883 4.82086C15.3797 4.83494 15.3713 4.84959 15.3638 4.86453L12.6343 10.3568C12.3749 10.8792 12.2312 11.4553 12.201 12.0342H8.52296C8.23398 12.0342 8 12.2592 8 12.537V20.3284C8 20.6062 8.23398 20.8312 8.52296 20.8312H12.5049C12.9191 21.5282 13.6981 22 14.591 22H22.1413C23.2661 22 24.2541 21.2326 24.4901 20.1753L25.9457 13.6601C26.099 12.9743 25.9239 12.2684 25.4655 11.723C25.0071 11.1777 24.3261 10.8648 23.5969 10.8648H18.6749V5.7032C18.6749 4.76397 17.8803 4 16.9037 4Z" fill="#00B287"/>
</svg>
