<svg width="67" height="44" viewBox="0 0 67 44" fill="none" xmlns="http://www.w3.org/2000/svg">
<mask id="mask0" mask-type="alpha" maskUnits="userSpaceOnUse" x="1" y="1" width="65" height="42">
<path fill-rule="evenodd" clip-rule="evenodd" d="M1 1H66V43H1V1Z" fill="#00B287"/>
</mask>
<g mask="url(#mask0)">
<path fill-rule="evenodd" clip-rule="evenodd" d="M45.5662 21.0379H43.376C42.8478 21.0379 42.4192 21.4683 42.4192 22C42.4192 22.5317 42.8478 22.9621 43.376 22.9621H45.5662C46.0944 22.9621 46.523 22.5317 46.523 22C46.523 21.4683 46.0944 21.0379 45.5662 21.0379ZM53.9581 34.6107C53.9581 33.6166 53.1544 32.8079 52.1659 32.8079C51.1779 32.8079 50.3737 33.6166 50.3737 34.6107C50.3737 35.6041 51.1779 36.4129 52.1659 36.4129C53.1544 36.4129 53.9581 35.6041 53.9581 34.6107ZM55.8717 34.6107C55.8717 36.6653 54.2096 38.3372 52.1659 38.3372C50.1222 38.3372 48.4601 36.6653 48.4601 34.6107C48.4601 32.5555 50.1222 30.8836 52.1659 30.8836C54.2096 30.8836 55.8717 32.5555 55.8717 34.6107ZM16.6263 34.6107C16.6263 33.6166 15.8226 32.8079 14.8341 32.8079C13.8456 32.8079 13.0419 33.6166 13.0419 34.6107C13.0419 35.6041 13.8456 36.4129 14.8341 36.4129C15.8226 36.4129 16.6263 35.6041 16.6263 34.6107ZM18.5399 34.6107C18.5399 36.6653 16.8778 38.3372 14.8341 38.3372C12.7909 38.3372 11.1283 36.6653 11.1283 34.6107C11.1283 32.5555 12.7909 30.8836 14.8341 30.8836C16.8778 30.8836 18.5399 32.5555 18.5399 34.6107ZM64.0864 32.2355H60.1636C60.385 32.9893 60.5091 33.7854 60.5091 34.6107C60.5091 35.4464 60.3834 36.2524 60.1559 37.0149H64.0864V32.2355ZM58.5955 34.6107C58.5955 31.0452 55.7115 28.1451 52.1659 28.1451C48.6208 28.1451 45.7368 31.0452 45.7368 34.6107C45.7368 38.1755 48.6208 41.0757 52.1659 41.0757C55.7115 41.0757 58.5955 38.1755 58.5955 34.6107ZM45.0151 30.3113C46.4744 27.8663 49.1293 26.2208 52.1659 26.2208C55.2025 26.2208 57.8574 27.8663 59.3172 30.3113H64.0864V27.7564H60.4982C59.9695 27.7564 59.5414 27.3259 59.5414 26.7942V23.088C59.5414 22.5564 59.9695 22.1259 60.4982 22.1259H64.0864V20.5013L57.8481 19.2296H43.376C42.8478 19.2296 42.4192 18.7991 42.4192 18.2674V10.3817C42.4192 9.85006 42.8478 9.41957 43.376 9.41957H51.6547L50.383 7.24678H39.9168V22V30.3113H45.0151ZM21.9854 30.3113H38.0032V22.9621H2.91358V30.3113H7.68277C9.14256 27.8663 11.7975 26.2208 14.8341 26.2208C17.8707 26.2208 20.5256 27.8663 21.9854 30.3113ZM21.2637 34.6107C21.2637 31.0452 18.3792 28.1451 14.8341 28.1451C11.2891 28.1451 8.40447 31.0452 8.40447 34.6107C8.40447 38.1755 11.2891 41.0757 14.8341 41.0757C18.3792 41.0757 21.2637 38.1755 21.2637 34.6107ZM6.84408 37.0149C6.61718 36.2524 6.49089 35.4464 6.49089 34.6107C6.49089 33.7854 6.615 32.9893 6.83697 32.2355H2.91358V37.0149H6.84408ZM9.01736 21.0379H19.5016V15.3915H9.01736V21.0379ZM21.4152 13.4672H31.8994V2.92374H21.4152V13.4672ZM21.4152 21.0379H31.8994V15.3915H21.4152V21.0379ZM44.3328 5.32249H45.7543V2.92429H44.3328V5.32249ZM52.781 11.3439H44.3328V17.3053H56.2703L52.781 11.3439ZM61.455 25.8321H64.0864V24.0502H61.455V25.8321ZM66 19.715V31.2734V37.9771C66 38.5082 65.5714 38.9392 65.0432 38.9392H59.2992C57.8361 41.3682 55.1904 43 52.1659 43C49.1419 43 46.4962 41.3682 45.0326 38.9392H40.4132C39.8845 38.9392 39.4564 38.5082 39.4564 37.9771C39.4564 37.4454 39.8845 37.0149 40.4132 37.0149H44.1764C43.949 36.2524 43.8232 35.4464 43.8232 34.6107C43.8232 33.7854 43.9468 32.9893 44.1688 32.2355H22.8312C23.0532 32.9893 23.1773 33.7854 23.1773 34.6107C23.1773 35.4464 23.051 36.2524 22.8241 37.0149H28.7169C29.245 37.0149 29.6737 37.4454 29.6737 37.9771C29.6737 38.5082 29.245 38.9392 28.7169 38.9392H21.9674C20.5043 41.3682 17.8587 43 14.8341 43C11.8095 43 9.16389 41.3682 7.70082 38.9392H1.95679C1.42864 38.9392 1 38.5082 1 37.9771V31.2734V22C1 21.4683 1.42864 21.0379 1.95679 21.0379H7.10378V1.96214C7.10378 1.43049 7.53242 1 8.06057 1H12.0239C12.552 1 12.9807 1.43049 12.9807 1.96214C12.9807 2.4938 12.552 2.92429 12.0239 2.92429H9.01736V13.4672H19.5016V2.92429H16.2212C15.693 2.92429 15.2644 2.4938 15.2644 1.96214C15.2644 1.43049 15.693 1 16.2212 1H32.8562C33.3849 1 33.813 1.43049 33.813 1.96214V21.0379H38.0032V6.28464C38.0032 5.75298 38.4318 5.32249 38.96 5.32249H42.4192V1.96214C42.4192 1.43049 42.8478 1 43.376 1H46.7111C47.2392 1 47.6679 1.43049 47.6679 1.96214V5.32249H50.9303C51.2692 5.32249 51.5825 5.50283 51.7547 5.79642L58.5512 17.4092L65.2335 18.7721C65.6796 18.8629 66 19.2576 66 19.715ZM36.6369 37.9771C36.6369 38.5082 36.2083 38.9392 35.6801 38.9392H33.2209C32.6927 38.9392 32.2641 38.5082 32.2641 37.9771C32.2641 37.4454 32.6927 37.0149 33.2209 37.0149H35.6801C36.2083 37.0149 36.6369 37.4454 36.6369 37.9771Z" fill="#00B287"/>
</g>
</svg>
