<svg width="48" height="41" viewBox="0 0 48 41" fill="none" xmlns="http://www.w3.org/2000/svg">
<mask id="mask0" mask-type="alpha" maskUnits="userSpaceOnUse" x="0" y="0" width="48" height="41">
<path fill-rule="evenodd" clip-rule="evenodd" d="M0 0H48V41H0V0Z" fill="#00B287"/>
</mask>
<g mask="url(#mask0)">
<path fill-rule="evenodd" clip-rule="evenodd" d="M48 34.8252V40.0655C48 40.5813 47.5807 41 47.0641 41H39.1188C38.6022 41 38.1829 40.5813 38.1829 40.0655C38.1829 39.5491 38.6022 39.131 39.1188 39.131H46.1281V35.7597H29.883V36.7386C29.883 37.255 29.4637 37.6731 28.9471 37.6731H22.2618C21.7452 37.6731 21.3259 37.255 21.3259 36.7386C21.3259 36.2227 21.7452 35.804 22.2618 35.804H28.0111V34.8252C28.0111 34.3093 28.4304 33.8907 28.9471 33.8907H44.1782V20.5307C44.1782 20.0148 44.5975 19.5962 45.1141 19.5962C45.6313 19.5962 46.05 20.0148 46.05 20.5307V33.8907H47.0641C47.5807 33.8907 48 34.3093 48 34.8252ZM32.6576 40.0655C32.6576 40.5813 32.2383 41 31.7217 41H0.935933C0.419298 41 0 40.5813 0 40.0655V34.8252C0 34.3093 0.419298 33.8907 0.935933 33.8907H19.0529C19.5696 33.8907 19.9889 34.3093 19.9889 34.8252V36.7386C19.9889 37.255 19.5696 37.6731 19.0529 37.6731C18.5363 37.6731 18.117 37.255 18.117 36.7386V35.7597H1.87187V39.131H31.7217C32.2383 39.131 32.6576 39.5491 32.6576 40.0655ZM36.4345 40.0655C36.4345 40.5813 36.0152 41 35.4986 41H34.9306C34.414 41 33.9947 40.5813 33.9947 40.0655C33.9947 39.5491 34.414 39.131 34.9306 39.131H35.4986C36.0152 39.131 36.4345 39.5491 36.4345 40.0655ZM25.4066 12.0137C25.4066 11.4973 25.8259 11.0792 26.3425 11.0792H39.1188C39.6354 11.0792 40.0547 11.4973 40.0547 12.0137C40.0547 12.5296 39.6354 12.9482 39.1188 12.9482H26.3425C25.8259 12.9482 25.4066 12.5296 25.4066 12.0137ZM25.4066 8.83687C25.4066 8.32101 25.8259 7.90234 26.3425 7.90234H32.7309C33.2481 7.90234 33.6669 8.32101 33.6669 8.83687C33.6669 9.35326 33.2481 9.77139 32.7309 9.77139H26.3425C25.8259 9.77139 25.4066 9.35326 25.4066 8.83687ZM41.5185 8.83687C41.5185 9.35326 41.0998 9.77139 40.5826 9.77139H35.9666C35.4499 9.77139 35.0306 9.35326 35.0306 8.83687C35.0306 8.32101 35.4499 7.90234 35.9666 7.90234H40.5826C41.0998 7.90234 41.5185 8.32101 41.5185 8.83687ZM25.4066 5.66108C25.4066 5.14469 25.8259 4.72656 26.3425 4.72656H41.6458C42.1625 4.72656 42.5817 5.14469 42.5817 5.66108C42.5817 6.17694 42.1625 6.59561 41.6458 6.59561H26.3425C25.8259 6.59561 25.4066 6.17694 25.4066 5.66108ZM1.94995 31.714V8.94794C1.94995 8.43155 2.36871 8.01342 2.88588 8.01342H8.08914C8.60577 8.01342 9.02507 8.43155 9.02507 8.94794C9.02507 9.4638 8.60577 9.88246 8.08914 9.88246H3.82182V11.4471H19.7214C20.2381 11.4471 20.6574 11.8658 20.6574 12.3817C20.6574 12.8975 20.2381 13.3162 19.7214 13.3162H3.82182V31.714C3.82182 32.2304 3.40252 32.6486 2.88588 32.6486C2.36871 32.6486 1.94995 32.2304 1.94995 31.714ZM10.4627 8.94794C10.4627 8.43155 10.882 8.01342 11.3986 8.01342H11.766C12.2827 8.01342 12.702 8.43155 12.702 8.94794C12.702 9.4638 12.2827 9.88246 11.766 9.88246H11.3986C10.882 9.88246 10.4627 9.4638 10.4627 8.94794ZM23.8363 1.86905H44.1782V15.9729H26.297C26.0382 15.9729 25.7906 16.0802 25.6135 16.2687L23.8363 18.1645V1.86905ZM14.9749 9.88246H21.9645V20.5307C21.9645 20.9141 22.1993 21.2591 22.5565 21.3995C22.6683 21.4439 22.7849 21.4652 22.9004 21.4652C23.1545 21.4652 23.4031 21.3622 23.5839 21.1694L26.703 17.8419H45.1141C45.6313 17.8419 46.05 17.4238 46.05 16.9074V0.934525C46.05 0.418667 45.6313 0 45.1141 0H22.9004C22.3838 0 21.9645 0.418667 21.9645 0.934525V8.01342H14.9749C14.4578 8.01342 14.039 8.43155 14.039 8.94794C14.039 9.4638 14.4578 9.88246 14.9749 9.88246Z" fill="#00B287"/>
</g>
</svg>
