<svg width="56" height="54" viewBox="0 0 56 54" fill="none" xmlns="http://www.w3.org/2000/svg">
<mask id="mask0" mask-type="alpha" maskUnits="userSpaceOnUse" x="1" y="0" width="54" height="54">
<path fill-rule="evenodd" clip-rule="evenodd" d="M1 0H55V54H1V0Z" fill="#00B287"/>
</mask>
<g mask="url(#mask0)">
<path fill-rule="evenodd" clip-rule="evenodd" d="M53.2605 36.8807L52.9175 35.2896L30.1206 40.2059C30.3681 40.6919 30.5789 41.2011 30.7424 41.737L53.2605 36.8807ZM29.3952 42.8407C28.5971 39.1413 25.3136 36.605 21.6735 36.605C21.1235 36.605 20.5653 36.6627 20.0066 36.783C15.7479 37.7019 13.0303 41.9137 13.9487 46.1718C14.8671 50.4304 19.0786 53.147 23.3378 52.2295C27.5965 51.3111 30.3136 47.0993 29.3952 42.8407ZM19.5587 15.6768L20.6257 20.6244L28.7615 18.8698L27.6946 13.9222L19.5587 15.6768ZM43.6207 10.4875L35.4853 12.2421L36.5522 17.1893L44.6876 15.4347L43.6207 10.4875ZM36.108 22.671L35.166 18.302V18.3016L33.9309 12.5773L29.2485 13.587L31.4505 23.7979L32.9912 21.5201C33.1093 21.3452 33.2919 21.2248 33.499 21.1849C33.7066 21.1449 33.921 21.1889 34.0954 21.307L36.108 22.671ZM54.3728 38.2669L31.0776 43.2908C31.7053 48.129 28.5258 52.7369 23.673 53.7833C23.0007 53.9282 22.3244 54 21.6531 54C19.8481 54 18.0793 53.4827 16.5264 52.4812C14.3966 51.1067 12.929 48.9852 12.3949 46.507C11.3479 41.6539 14.2358 36.858 18.9028 35.4363L14.0437 12.9066C13.951 12.4774 14.224 12.0545 14.6528 11.9623C15.0815 11.8692 15.5049 12.1422 15.5975 12.5714L20.4567 35.1011C21.0122 35.0289 21.5632 35.0112 22.1082 35.0362L17.8377 15.2366C17.8377 15.2362 17.8372 15.2357 17.8372 15.2353C17.8368 15.2348 17.8372 15.2339 17.8368 15.2335L14.8944 1.5897H2.58975V3.21711H12.9386C13.3128 3.21711 13.6367 3.47827 13.7153 3.84436L14.8626 9.16578C14.9553 9.59455 14.6823 10.0174 14.2535 10.1101C13.8261 10.2032 13.4019 9.9302 13.3087 9.50098L12.2963 4.80681H1.79487C1.3561 4.80681 1 4.45117 1 4.01196V0.794852C1 0.35564 1.3561 0 1.79487 0H15.5357C15.9105 0 16.2339 0.261166 16.3129 0.627252L19.2235 14.1229L28.1361 12.2012C28.1361 12.2008 28.1361 12.2008 28.1365 12.2008L44.0626 8.76609C44.4905 8.67434 44.9147 8.9464 45.0074 9.37517L47.6141 21.4619C47.7068 21.8911 47.4338 22.314 47.005 22.4067C46.9483 22.4189 46.8919 22.4248 46.8365 22.4248C46.47 22.4248 46.1407 22.17 46.0603 21.7976L45.0233 16.9889L36.8874 18.7431L38.0797 24.273C38.1483 24.5905 38.0166 24.9175 37.7477 25.0992C37.4784 25.2804 37.1259 25.2804 36.857 25.0987L33.8624 23.0693L31.7248 26.2306C31.5754 26.4522 31.3269 26.5803 31.0662 26.5803C31.0163 26.5803 30.9658 26.5758 30.9154 26.5662C30.6029 26.5054 30.3563 26.2642 30.2895 25.9531L29.0968 20.4236L20.9609 22.1782L23.7834 35.2651C25.9468 35.7629 27.8763 37.0079 29.2217 38.7738L48.8105 34.5493L48.1074 31.2881C48.0148 30.8593 48.2877 30.4365 48.717 30.3438C49.1439 30.2525 49.5686 30.5237 49.6613 30.9534L50.3644 34.2141L53.359 33.5682C53.5657 33.5237 53.7805 33.5632 53.9577 33.6772C54.1348 33.7917 54.2593 33.9715 54.3038 34.1777L54.9819 37.3226C55.0746 37.7514 54.8016 38.1747 54.3728 38.2669ZM25.0134 43.7859V43.7855C24.6682 42.1853 23.2474 41.088 21.6726 41.088C21.4346 41.088 21.193 41.1125 20.9513 41.1652C20.0588 41.3573 19.2948 41.886 18.7997 42.6531C18.3046 43.4203 18.1379 44.3346 18.3305 45.2266C18.5227 46.1196 19.0518 46.8836 19.819 47.3787C20.5857 47.8737 21.5 48.04 22.3926 47.8478C24.2353 47.4504 25.4108 45.6282 25.0134 43.7859ZM26.5672 43.4507C27.1495 46.1496 25.4272 48.8194 22.7278 49.4017C22.3735 49.478 22.0196 49.5148 21.6708 49.5148C19.3634 49.5148 17.2822 47.9073 16.7767 45.5623C16.1944 42.8625 17.9167 40.1932 20.6161 39.6109C23.3178 39.0286 25.9854 40.7514 26.5672 43.4507ZM33.1942 34.165L29.1722 35.0321C28.7429 35.1248 28.4699 35.5476 28.5626 35.9768C28.643 36.3493 28.9723 36.6041 29.3388 36.6041C29.3947 36.6041 29.451 36.5982 29.5074 36.5859L33.5294 35.7184C33.9582 35.6262 34.2312 35.2033 34.1385 34.7741C34.0463 34.3449 33.6239 34.0728 33.1942 34.165ZM37.4107 33.2553L35.9599 33.5682C35.5307 33.6609 35.2582 34.0837 35.3508 34.5129C35.4312 34.8854 35.7605 35.1402 36.1266 35.1402C36.1825 35.1402 36.2388 35.1343 36.2951 35.122L37.7463 34.8091C38.1756 34.7164 38.4481 34.2936 38.3554 33.8643C38.2628 33.4356 37.8386 33.1635 37.4107 33.2553ZM47.4979 24.6936C47.9257 24.6009 48.3495 24.8734 48.4426 25.3026L48.8728 27.2984C48.9654 27.7276 48.6929 28.1505 48.2637 28.2427C48.2073 28.255 48.1506 28.2609 48.0951 28.2609C47.7291 28.2609 47.3993 28.0061 47.3189 27.6336L46.8888 25.6383C46.7961 25.2091 47.0686 24.7862 47.4979 24.6936Z" fill="#00B287"/>
</g>
</svg>
