<svg width="52" height="52" viewBox="0 0 52 52" fill="none" xmlns="http://www.w3.org/2000/svg">
<path fill-rule="evenodd" clip-rule="evenodd" d="M47.6667 5.25H43.3333V3.5C43.3333 1.567 41.7813 0 39.8667 0C37.9521 0 36.4 1.567 36.4 3.5V5.25H29.4667V3.5C29.4667 1.567 27.9146 0 26 0C24.0854 0 22.5333 1.567 22.5333 3.5V5.25H15.6V3.5C15.6 1.567 14.0479 0 12.1333 0C10.2187 0 8.66667 1.567 8.66667 3.5V5.25H4.33333C1.9401 5.25 0 7.20875 0 9.625V44.625C0 45.7853 0.456546 46.8981 1.2692 47.7186C2.08186 48.5391 3.18406 49 4.33333 49H28.6C29.0786 49 29.4667 48.6082 29.4667 48.125C29.4667 47.6418 29.0786 47.25 28.6 47.25H4.33333C2.89917 47.2457 1.73762 46.073 1.73333 44.625V17.5H50.2667V32.375C50.2667 32.8582 50.6547 33.25 51.1333 33.25C51.612 33.25 52 32.8582 52 32.375V9.625C52 7.20875 50.0599 5.25 47.6667 5.25ZM38.1333 3.5C38.1333 2.5335 38.9094 1.75 39.8667 1.75C40.824 1.75 41.6 2.5335 41.6 3.5V8.75C41.6 9.7165 40.824 10.5 39.8667 10.5C38.9094 10.5 38.1333 9.7165 38.1333 8.75V3.5ZM26 1.75C25.0427 1.75 24.2667 2.5335 24.2667 3.5V8.75C24.2667 9.7165 25.0427 10.5 26 10.5C26.9573 10.5 27.7333 9.7165 27.7333 8.75V3.5C27.7333 2.5335 26.9573 1.75 26 1.75ZM10.4 3.5C10.4 2.5335 11.176 1.75 12.1333 1.75C13.0906 1.75 13.8667 2.5335 13.8667 3.5V8.75C13.8667 9.7165 13.0906 10.5 12.1333 10.5C11.176 10.5 10.4 9.7165 10.4 8.75V3.5ZM1.73333 9.625V15.75H50.2667V9.625C50.2624 8.17705 49.1008 7.00432 47.6667 7H43.3333V8.75C43.3333 10.683 41.7813 12.25 39.8667 12.25C37.9521 12.25 36.4 10.683 36.4 8.75V7H29.4667V8.75C29.4667 10.683 27.9146 12.25 26 12.25C24.0854 12.25 22.5333 10.683 22.5333 8.75V7H15.6V8.75C15.6 10.683 14.0479 12.25 12.1333 12.25C10.2187 12.25 8.66667 10.683 8.66667 8.75V7H4.33333C2.89917 7.00432 1.73762 8.17705 1.73333 9.625Z" fill="#00B287"/>
<path fill-rule="evenodd" clip-rule="evenodd" d="M22.25 22C23.2165 22 24 22.7675 24 23.7143V26.2857C24 27.2325 23.2165 28 22.25 28H18.75C17.7835 28 17 27.2325 17 26.2857V23.7143C17 22.7675 17.7835 22 18.75 22H22.25ZM18.75 23.7143V26.2857H22.25V23.7143H18.75Z" fill="#00B287"/>
<path fill-rule="evenodd" clip-rule="evenodd" d="M12.5 22C13.3284 22 14 22.7675 14 23.7143V26.2857C14 27.2325 13.3284 28 12.5 28H9.5C8.67157 28 8 27.2325 8 26.2857V23.7143C8 22.7675 8.67157 22 9.5 22H12.5ZM9.5 23.7143V26.2857H12.5V23.7143H9.5Z" fill="#00B287"/>
<path fill-rule="evenodd" clip-rule="evenodd" d="M45 26.2857C45 27.2325 44.2165 28 43.25 28H39.75C38.7835 28 38 27.2325 38 26.2857V23.7143C38 22.7675 38.7835 22 39.75 22H43.25C44.2165 22 45 22.7675 45 23.7143V26.2857ZM43.25 23.7143H39.75V26.2857H43.25V23.7143Z" fill="#00B287"/>
<path fill-rule="evenodd" clip-rule="evenodd" d="M22.25 29C23.2165 29 24 29.8954 24 31V34C24 35.1046 23.2165 36 22.25 36H18.75C17.7835 36 17 35.1046 17 34V31C17 29.8954 17.7835 29 18.75 29H22.25ZM18.75 31V34H22.25V31H18.75Z" fill="#00B287"/>
<path fill-rule="evenodd" clip-rule="evenodd" d="M12.5 29C13.3284 29 14 29.8954 14 31V34C14 35.1046 13.3284 36 12.5 36H9.5C8.67157 36 8 35.1046 8 34V31C8 29.8954 8.67157 29 9.5 29H12.5ZM9.5 31V34H12.5V31H9.5Z" fill="#00B287"/>
<path fill-rule="evenodd" clip-rule="evenodd" d="M18.75 37H22.25C23.2165 37 24 37.8954 24 39V42C24 43.1046 23.2165 44 22.25 44H18.75C17.7835 44 17 43.1046 17 42V39C17 37.8954 17.7835 37 18.75 37ZM18.75 39V42H22.25V39H18.75Z" fill="#00B287"/>
<path fill-rule="evenodd" clip-rule="evenodd" d="M33.25 28H29.75C28.7835 28 28 27.2325 28 26.2857V23.7143C28 22.7675 28.7835 22 29.75 22H33.25C34.2165 22 35 22.7675 35 23.7143V26.2857C35 27.2325 34.2165 28 33.25 28ZM33.25 23.7143H29.75V26.2857H33.25V23.7143Z" fill="#00B287"/>
<path d="M27 34C27 35.1046 27.7675 36 28.7143 36C29.1877 36 29.5714 35.5523 29.5714 35C29.5714 34.4477 29.1877 34 28.7143 34V31H32.1429C32.6162 31 33 30.5523 33 30C33 29.4477 32.6162 29 32.1429 29H28.7143C27.7675 29 27 29.8954 27 31V34Z" fill="#00B287"/>
<path fill-rule="evenodd" clip-rule="evenodd" d="M9.5 37H12.5C13.3284 37 14 37.8954 14 39V42C14 43.1046 13.3284 44 12.5 44H9.5C8.67157 44 8 43.1046 8 42V39C8 37.8954 8.67157 37 9.5 37ZM9.5 39V42H12.5V39H9.5Z" fill="#00B287"/>
<path fill-rule="evenodd" clip-rule="evenodd" d="M29 40.5C29 34.1487 34.1487 29 40.5 29C46.8482 29.0073 51.9927 34.1518 52 40.5C52 46.8513 46.8513 52 40.5 52C34.1487 52 29 46.8513 29 40.5ZM30.7692 40.5C30.7692 45.8742 35.1258 50.2308 40.5 50.2308C45.8715 50.2244 50.2244 45.8715 50.2308 40.5C50.2308 35.1258 45.8742 30.7692 40.5 30.7692C35.1258 30.7692 30.7692 35.1258 30.7692 40.5Z" fill="#00B287"/>
<path d="M45.5015 37.2144L38.6242 43.1561L35.4985 40.4549C35.1515 40.1654 34.6 40.1696 34.259 40.4642C33.9179 40.7589 33.9131 41.2353 34.2482 41.5351L37.999 44.7763C38.3443 45.0746 38.904 45.0746 39.2493 44.7763L46.7518 38.2946C47.0869 37.9949 47.0821 37.5184 46.741 37.2237C46.4 36.9291 45.8485 36.9249 45.5015 37.2144Z" fill="#00B287"/>
</svg>
