<svg width="69" height="45" viewBox="0 0 69 45" fill="none" xmlns="http://www.w3.org/2000/svg">
<mask id="mask0" mask-type="alpha" maskUnits="userSpaceOnUse" x="1" y="1" width="67" height="43">
<path fill-rule="evenodd" clip-rule="evenodd" d="M1 1H68V44H1V1Z" fill="#00B287"/>
</mask>
<g mask="url(#mask0)">
<path fill-rule="evenodd" clip-rule="evenodd" d="M21.1997 5.63362C20.6553 5.63362 20.2135 6.07492 20.2135 6.61866C20.2135 7.1624 20.6553 7.60369 21.1997 7.60369H23.2246C23.7695 7.60369 24.2108 7.1624 24.2108 6.61866C24.2108 6.07492 23.7695 5.63362 23.2246 5.63362H21.1997ZM7.51758 5.63362C6.97261 5.63362 6.53134 6.07492 6.53134 6.61866C6.53134 7.1624 6.97261 7.60369 7.51758 7.60369H17.2903C17.8352 7.60369 18.2765 7.1624 18.2765 6.61866C18.2765 6.07492 17.8352 5.63362 17.2903 5.63362H7.51758ZM46.9375 23.4848C47.4819 23.4848 47.9237 23.044 47.9237 22.4997C47.9237 21.956 47.4819 21.5147 46.9375 21.5147H44.6799C44.1355 21.5147 43.6936 21.956 43.6936 22.4997C43.6936 23.044 44.1355 23.4848 44.6799 23.4848H46.9375ZM55.5876 35.4105C55.5876 34.3928 54.7592 33.5654 53.7402 33.5654C52.7219 33.5654 51.8929 34.3928 51.8929 35.4105C51.8929 36.4276 52.7219 37.2556 53.7402 37.2556C54.7592 37.2556 55.5876 36.4276 55.5876 35.4105ZM57.56 35.4105C57.56 37.5139 55.8468 39.2257 53.7402 39.2257C51.6336 39.2257 49.9204 37.5139 49.9204 35.4105C49.9204 33.3064 51.6336 31.5953 53.7402 31.5953C55.8468 31.5953 57.56 33.3064 57.56 35.4105ZM17.1071 35.4105C17.1071 34.3928 16.2787 33.5654 15.2598 33.5654C14.2409 33.5654 13.4124 34.3928 13.4124 35.4105C13.4124 36.4276 14.2409 37.2556 15.2598 37.2556C16.2787 37.2556 17.1071 36.4276 17.1071 35.4105ZM19.0796 35.4105C19.0796 37.5139 17.3664 39.2257 15.2598 39.2257C13.1537 39.2257 11.44 37.5139 11.44 35.4105C11.44 33.3064 13.1537 31.5953 15.2598 31.5953C17.3664 31.5953 19.0796 33.3064 19.0796 35.4105ZM66.0275 32.9794H61.984C62.2122 33.7511 62.3402 34.5656 62.3402 35.4105C62.3402 36.266 62.2105 37.0918 61.9761 37.8719H66.0275V32.9794ZM60.3677 35.4105C60.3677 31.7608 57.3949 28.791 53.7402 28.791C50.0861 28.791 47.1128 31.7608 47.1128 35.4105C47.1128 39.0602 50.0861 42.0299 53.7402 42.0299C57.3949 42.0299 60.3677 39.0602 60.3677 35.4105ZM45.5044 37.8719C45.2705 37.0918 45.1403 36.266 45.1403 35.4105C45.1403 34.5656 45.2682 33.7511 45.497 32.9794H23.503C23.7318 33.7511 23.8597 34.5656 23.8597 35.4105C23.8597 36.266 23.7295 37.0918 23.4956 37.8719H45.5044ZM21.8872 35.4105C21.8872 31.7608 18.9139 28.791 15.2598 28.791C11.6056 28.791 8.6323 31.7608 8.6323 35.4105C8.6323 39.0602 11.6056 42.0299 15.2598 42.0299C18.9139 42.0299 21.8872 39.0602 21.8872 35.4105ZM7.0239 37.8719C6.79002 37.0918 6.65984 36.266 6.65984 35.4105C6.65984 34.5656 6.78777 33.7511 7.01657 32.9794H2.97246V37.8719H7.0239ZM41.1142 31.0093H46.3694C47.8736 28.5056 50.6102 26.8209 53.7402 26.8209C56.8702 26.8209 59.6069 28.5056 61.1116 31.0093H66.0275V28.3936H62.3283C61.7839 28.3936 61.3421 27.9523 61.3421 27.4086V23.6137C61.3421 23.0699 61.7839 22.6286 62.3283 22.6286H66.0275V20.9659L59.5956 19.6634H44.6799C44.1355 19.6634 43.6936 19.2221 43.6936 18.6783V10.605C43.6936 10.0612 44.1355 9.61993 44.6799 9.61993H53.2133L51.9025 7.39543H41.1142V31.0093ZM45.6661 5.42535H47.1314V2.97008H45.6661V5.42535ZM54.3742 11.59H45.6661V17.6933H57.9709L54.3742 11.59ZM63.3151 26.423H66.0275V24.5987H63.3151V26.423ZM68 20.1604V31.9944V38.857C68 39.4013 67.5582 39.842 67.0138 39.842H61.093C59.5844 42.3288 56.8573 44 53.7402 44C50.6232 44 47.8961 42.3288 46.3875 39.842H22.6125C21.1039 42.3288 18.3768 44 15.2598 44C12.1427 44 9.41565 42.3288 7.907 39.842H1.98623C1.44183 39.842 1 39.4013 1 38.857V31.9944V27.4249C1 26.8812 1.44183 26.4399 1.98623 26.4399C2.53119 26.4399 2.97246 26.8812 2.97246 27.4249V31.0093H7.8884C9.3931 28.5056 12.1298 26.8209 15.2598 26.8209C18.3898 26.8209 21.1264 28.5056 22.6311 31.0093H39.1418V2.97008H36.7145C36.1695 2.97008 35.7283 2.52878 35.7283 1.98504C35.7283 1.4413 36.1695 1 36.7145 1H40.128C40.6724 1 41.1142 1.4413 41.1142 1.98504V5.42535H43.6936V1.98504C43.6936 1.4413 44.1355 1 44.6799 1H48.1176C48.662 1 49.1038 1.4413 49.1038 1.98504V5.42535H52.466C52.816 5.42535 53.1389 5.60998 53.3164 5.91112L60.3221 17.8002L67.2099 19.1951C67.6697 19.2879 68 19.6921 68 20.1604ZM1.98623 23.7735C2.53119 23.7735 2.97246 23.3322 2.97246 22.7885V20.2561C2.97246 19.7123 2.53119 19.271 1.98623 19.271C1.44183 19.271 1 19.7123 1 20.2561V22.7885C1 23.3322 1.44183 23.7735 1.98623 23.7735ZM1 15.3832V1.98504C1 1.4413 1.44183 1 1.98623 1H32.3875C32.9319 1 33.3737 1.4413 33.3737 1.98504C33.3737 2.52878 32.9319 2.97008 32.3875 2.97008H2.97246V15.3832C2.97246 15.9275 2.53119 16.3683 1.98623 16.3683C1.44183 16.3683 1 15.9275 1 15.3832Z" fill="#00B287"/>
</g>
</svg>
