<svg width="31" height="38" viewBox="0 0 31 38" fill="none" xmlns="http://www.w3.org/2000/svg">
<mask id="mask0" mask-type="alpha" maskUnits="userSpaceOnUse" x="1" y="0" width="29" height="38">
<path fill-rule="evenodd" clip-rule="evenodd" d="M1 0H30V38H1V0Z" fill="#00B287"/>
</mask>
<g mask="url(#mask0)">
<path fill-rule="evenodd" clip-rule="evenodd" d="M6.62401 10.1905H21.1044C21.4122 10.1905 21.6614 9.94021 21.6614 9.63113C21.6614 9.32205 21.4122 9.07177 21.1044 9.07177H6.62401C6.31627 9.07177 6.06708 9.32205 6.06708 9.63113C6.06708 9.94021 6.31627 10.1905 6.62401 10.1905ZM6.62401 29.5055H21.1044C21.4122 29.5055 21.6614 29.2552 21.6614 28.9461C21.6614 28.637 21.4122 28.3868 21.1044 28.3868H6.62401C6.31627 28.3868 6.06708 28.637 6.06708 28.9461C6.06708 29.2552 6.31627 29.5055 6.62401 29.5055ZM6.62401 25.6424H21.1044C21.4122 25.6424 21.6614 25.3921 21.6614 25.0831C21.6614 24.774 21.4122 24.5237 21.1044 24.5237H6.62401C6.31627 24.5237 6.06708 24.774 6.06708 25.0831C6.06708 25.3921 6.31627 25.6424 6.62401 25.6424ZM6.62401 21.7797H21.1044C21.4122 21.7797 21.6614 21.5294 21.6614 21.2203C21.6614 20.9112 21.4122 20.661 21.1044 20.661H6.62401C6.31627 20.661 6.06708 20.9112 6.06708 21.2203C6.06708 21.5294 6.31627 21.7797 6.62401 21.7797ZM6.62401 17.9166H21.1044C21.4122 17.9166 21.6614 17.6663 21.6614 17.3573C21.6614 17.0482 21.4122 16.7979 21.1044 16.7979H6.62401C6.31627 16.7979 6.06708 17.0482 6.06708 17.3573C6.06708 17.6663 6.31627 17.9166 6.62401 17.9166ZM6.62401 14.0535H21.1044C21.4122 14.0535 21.6614 13.8033 21.6614 13.4942C21.6614 13.1851 21.4122 12.9348 21.1044 12.9348H6.62401C6.31627 12.9348 6.06708 13.1851 6.06708 13.4942C6.06708 13.8033 6.31627 14.0535 6.62401 14.0535ZM7.60675 1.9098L2.90151 6.63554H7.60675V1.9098ZM30 3.84484V9.3604C30 9.66948 29.7508 9.91976 29.4431 9.91976C29.1353 9.91976 28.8861 9.66948 28.8861 9.3604V4.4042H26.7285V34.1552C26.7285 34.4639 26.4793 34.7145 26.1715 34.7145H5.3854V36.8813H28.8861V16.1986C28.8861 15.8895 29.1353 15.6392 29.4431 15.6392C29.7508 15.6392 30 15.8895 30 16.1986V37.4406C30 37.7497 29.7508 38 29.4431 38H4.82848C4.52105 38 4.27155 37.7497 4.27155 37.4406V34.7145H1.55693C1.24919 34.7145 1 34.4639 1 34.1552V28.4977C1 28.1889 1.24919 27.9383 1.55693 27.9383C1.86467 27.9383 2.11385 28.1889 2.11385 28.4977V33.5958H25.6146V1.11871H8.7206V5.20871H21.1044C21.4122 5.20871 21.6614 5.45898 21.6614 5.76807C21.6614 6.07715 21.4122 6.32742 21.1044 6.32742H8.7206V7.1949C8.7206 7.50398 8.47142 7.75425 8.16368 7.75425H2.11385V26.0439C2.11385 26.3526 1.86467 26.6032 1.55693 26.6032C1.24919 26.6032 1 26.3526 1 26.0439V7.1949C1 7.15974 1.00414 7.12522 1.01018 7.09198C1.01082 7.08942 1.0105 7.08686 1.01114 7.08431C1.021 7.03604 1.03819 6.99097 1.05951 6.94782C1.0646 6.9376 1.07001 6.92833 1.07542 6.91842C1.10057 6.87463 1.12889 6.83372 1.16421 6.79856L7.76905 0.16493C7.80438 0.129131 7.84543 0.100684 7.88903 0.075433C7.89826 0.0699992 7.90749 0.0648851 7.91704 0.0604103C7.96032 0.0383557 8.00615 0.020776 8.05484 0.0108675H8.05611C8.0908 0.00415521 8.12708 0 8.16368 0H26.1715C26.4793 0 26.7285 0.250271 26.7285 0.559355V3.28549H29.4431C29.7508 3.28549 30 3.53608 30 3.84484ZM30 12.1278V13.5655C30 13.8742 29.7508 14.1248 29.4431 14.1248C29.1353 14.1248 28.8861 13.8742 28.8861 13.5655V12.1278C28.8861 11.8187 29.1353 11.5684 29.4431 11.5684C29.7508 11.5684 30 11.8187 30 12.1278Z" fill="#00B287"/>
</g>
</svg>
