<svg width="52" height="59" viewBox="0 0 52 59" fill="none" xmlns="http://www.w3.org/2000/svg">
<path fill-rule="evenodd" clip-rule="evenodd" d="M43 39H50V35H43V39ZM40 34H37V43L38.1571 41.4985C38.2783 41.3416 38.4446 41.2581 38.6077 41.261C38.7755 41.2664 38.9342 41.3612 39.0504 41.5254L40 42.871V34ZM28 39H35V35H28V39ZM28 26H21L23.5222 30L28 26ZM18 26H11L15.4778 30L18 26ZM52 33.5519V46.1864C52 46.6753 51.6119 47.0722 51.1337 47.0722C50.6549 47.0722 50.2673 46.6753 50.2673 46.1864V40.6717H42.9129V45.8331C42.9129 46.195 42.6975 46.5209 42.3688 46.6551C42.2644 46.6981 42.155 46.7188 42.0465 46.7188C41.8144 46.7188 41.5866 46.6237 41.4198 46.445L39.2238 44.0964L36.797 46.4728C36.5465 46.7178 36.1777 46.7877 35.8574 46.648C35.5386 46.5083 35.3312 46.1879 35.3312 45.8331V40.6717H27.9767V57.2284H50.2673V50.0717C50.2673 49.5827 50.6549 49.1859 51.1337 49.1859C51.6119 49.1859 52 49.5827 52 50.0717V58.1142C52 58.6037 51.6119 59 51.1337 59H27.1104H1.86634C1.38812 59 1 58.6037 1 58.1142V44.0544C1 43.5649 1.38812 43.1686 1.86634 43.1686C2.34455 43.1686 2.73267 43.5649 2.73267 44.0544V57.2284H8.81683V33.5519C8.81683 33.0624 9.20446 32.6661 9.68317 32.6661C10.1614 32.6661 10.5495 33.0624 10.5495 33.5519V57.2284H26.2441V33.5519C26.2441 33.0624 26.6322 32.6661 27.1104 32.6661H38.2554V30.7746C38.2554 28.0159 36.0604 25.7716 33.3624 25.7716H29.898L24.4054 32.6535C24.2396 32.861 23.9926 32.9794 23.7342 32.9794C23.698 32.9794 23.6614 32.9769 23.6248 32.9723C23.3282 32.9334 23.0718 32.741 22.947 32.4631L20.4941 27.0066L18.0411 32.4631C17.9163 32.741 17.6599 32.9334 17.3634 32.9723C17.0673 33.0093 16.7718 32.8903 16.5827 32.6535L11.0906 25.7716H7.62574C4.92772 25.7716 2.73267 28.0159 2.73267 30.7746V33.2259C2.73267 33.7154 2.34455 34.1117 1.86634 34.1117C1.38812 34.1117 1 33.7154 1 33.2259V30.7746C1 27.0385 3.97228 24 7.62574 24H33.3624C37.0158 24 39.9881 27.0385 39.9881 30.7746V32.6661H51.1337C51.6119 32.6661 52 33.0624 52 33.5519ZM0.5 41C0.776 41 1 40.7063 1 40.3436V38.6564C1 38.2941 0.776 38 0.5 38C0.224 38 0 38.2941 0 38.6564V40.3436C0 40.7063 0.224 41 0.5 41ZM10 10C11.9067 9.30135 15.5933 8.20784 20 8.20784C24.4072 8.20784 28.0938 9.30135 30 10C29.3141 5.48769 25.0971 2 20 2C14.9029 2 10.6864 5.48769 10 10ZM14.1873 14C15.0582 13.7041 17.1406 13.0709 19 13.0709C20.8599 13.0709 22.9423 13.7041 23.8127 14L28 11.6192C26.1681 10.958 22.8503 10 19 10C15.1502 10 11.8324 10.958 10 11.6192L14.1873 14ZM30 13L25.4047 15.5913C25.1683 15.7253 24.8784 15.7467 24.6213 15.6497C24.5961 15.6407 22.0527 14.6912 19.9997 14.6912C17.9397 14.6912 15.4044 15.6402 15.3792 15.6497C15.2731 15.6896 15.161 15.7096 15.0494 15.7096C14.8913 15.7096 14.7342 15.6697 14.5953 15.5913L10 13C10.7889 17.5291 14.9665 21 19.9997 21C25.0335 21 29.2106 17.5291 30 13ZM8 11.4998C8 11.4905 8.00049 11.4807 8.00049 11.471C8.00049 11.4705 8.00049 11.4695 8.00049 11.4686C8.00049 11.4676 8.00049 11.4671 8.00097 11.4661C8.01901 5.14047 13.1702 0 19.4998 0C25.8298 0 30.9805 5.14047 30.999 11.4661C30.999 11.4671 30.9995 11.4676 30.9995 11.4686C30.9995 11.4695 30.999 11.4705 30.999 11.471C30.999 11.4807 31 11.4905 31 11.4998C31 17.841 25.841 23 19.4998 23C13.159 23 8 17.841 8 11.4998ZM37.7973 53C37.3572 53 37 53.2237 37 53.5C37 53.7763 37.3572 54 37.7973 54H39.2027C39.6428 54 40 53.7763 40 53.5C40 53.2237 39.6428 53 39.2027 53H37.7973ZM45.9807 53C46.5434 53 47 53.2237 47 53.5C47 53.7763 46.5434 54 45.9807 54H41.0193C40.4566 54 40 53.7763 40 53.5C40 53.2237 40.4566 53 41.0193 53H45.9807Z" fill="#00B287"/>
</svg>
