<svg width="56" height="52" viewBox="0 0 56 52" fill="none" xmlns="http://www.w3.org/2000/svg">
<path fill-rule="evenodd" clip-rule="evenodd" d="M7 25C7 23.3415 8.34146 22 10 22C11.6585 22 13 23.3537 13 25C13 26.6585 11.6585 28 10 28C8.34146 28 7 26.6585 7 25ZM9 25C9 25.5488 9.45122 26 10 26C10.5488 26 11 25.5488 11 25C11 24.4512 10.5488 24 10 24C9.45122 24 9 24.4512 9 25Z" fill="#00B287"/>
<path fill-rule="evenodd" clip-rule="evenodd" d="M39.4535 12.3931C39.6409 11.6248 39.7402 10.8343 39.7402 10.0325C39.7402 4.4985 35.2866 0 29.8079 0C24.3291 0 19.8756 4.4985 19.8756 10.0325C19.8756 10.6895 19.9417 11.3353 20.063 11.9589C19.2583 12.1482 18.4535 12.3486 17.6929 12.5824C15.852 9.86552 12.7764 8.20642 9.50236 8.20642C6.6252 8.20642 3.75906 9.70964 3.75906 9.70964L6.0189 10.567C8.30079 11.4355 10.0756 13.2728 10.8583 15.5777C7.57323 17.5597 5.04882 20.0428 3.51654 22.8154H0V35.576H3.50551C5.43465 39.0612 8.9622 42.1011 13.548 44.2278V52H24.3843V47.1786C27.1402 47.4904 29.7969 47.5238 32.5087 47.2788V52H43.3449V44.6398C51.2819 41.2882 56 35.5537 56 29.1957C56 21.7576 49.5291 15.2437 39.4535 12.3931ZM29.8079 1.82612C34.2945 1.82612 37.9323 5.51178 37.9323 10.0325C37.9323 12.0702 37.2047 14.0077 35.8598 15.5109H30.7118V14.4308C31.7591 14.0522 32.5197 13.0501 32.5197 11.8587C32.5197 10.3443 31.3071 9.11949 29.8079 9.11949C29.3118 9.11949 28.9039 8.70749 28.9039 8.20642C28.9039 7.70535 29.3118 7.29336 29.8079 7.29336C30.3039 7.29336 30.7118 7.70535 30.7118 8.20642H32.5197C32.5197 7.01499 31.7591 6.01285 30.7118 5.63426V4.55418H28.9039V5.63426C27.8567 6.01285 27.0961 7.01499 27.0961 8.20642C27.0961 9.72077 28.3087 10.9456 29.8079 10.9456C30.3039 10.9456 30.7118 11.3576 30.7118 11.8587C30.7118 12.3597 30.3039 12.7717 29.8079 12.7717C29.3118 12.7717 28.9039 12.3597 28.9039 11.8587H27.0961C27.0961 13.0501 27.8567 14.0522 28.9039 14.4308V15.5109H23.7449C22.411 14.0077 21.6724 12.0814 21.6724 10.0325C21.6724 5.50064 25.3213 1.82612 29.8079 1.82612ZM41.548 43.415L42.1213 43.1812C49.6835 40.1525 54.1921 34.9191 54.2031 29.2069C54.2031 22.6929 48.074 16.7135 38.8803 14.1302C38.6709 14.609 38.4283 15.0655 38.1417 15.5109H39.7512V17.337H19.8756V15.5109H21.485C21.1213 14.943 20.8126 14.3418 20.5701 13.7182C19.5339 13.9632 16.8772 14.7649 16.8772 14.7649L16.5134 14.1302C14.9591 11.4355 11.9606 9.84326 8.89606 10.066C10.8142 11.4244 12.2142 13.451 12.7984 15.7893L12.9638 16.4685L12.3575 16.8137C6.70236 19.6086 4.60787 24.6415 4.60787 24.6415H1.80787V33.761H4.6189L4.87244 34.2621C6.60315 37.7139 10.1417 40.7426 14.8268 42.8026L15.3669 43.0364V50.1739H22.5874V45.0964L23.6126 45.2411C26.9197 45.7088 30.0945 45.731 33.3244 45.3636L34.3276 45.2522V50.185H41.548V43.415Z" fill="#00B287"/>
</svg>
