<svg width="61" height="39" viewBox="0 0 61 39" fill="none" xmlns="http://www.w3.org/2000/svg">
<path fill-rule="evenodd" clip-rule="evenodd" d="M52.7564 17.1605C54.5427 15.8965 55.7256 13.794 55.7256 11.4241C55.7256 7.54721 52.6116 4.41165 48.7614 4.41165C44.9112 4.41165 41.7972 7.54721 41.7972 11.4241C41.7972 13.794 42.9679 15.8965 44.7663 17.1605C43.2335 17.6952 41.8334 18.5217 40.6506 19.5912C39.0212 18.1935 37.1021 17.124 35.002 16.4921C37.5487 14.9364 39.2626 12.1047 39.2626 8.88408C39.2626 3.97414 35.3158 0 30.4397 0C25.5635 0 21.6167 3.98629 21.6167 8.88408C21.6167 12.1047 23.3186 14.9364 25.8773 16.4921C23.8013 17.124 21.9064 18.1814 20.2891 19.5547C19.1063 18.5095 17.7303 17.6952 16.2216 17.1726C18.0079 15.9087 19.1907 13.8062 19.1907 11.4363C19.1907 7.55936 16.0768 4.42381 12.2266 4.42381C8.37634 4.42381 5.26237 7.55936 5.26237 11.4363C5.26237 13.8062 6.43312 15.9087 8.2315 17.1726C3.43985 18.8376 0 23.4194 0 28.8034V29.6055C0 29.6298 0.0241393 29.6541 0.0482786 29.6541H14.8095C14.725 30.3225 14.6767 31.0153 14.6767 31.708V32.5344C14.6767 36.1075 17.5493 39 21.0977 39H39.8057C43.3542 39 46.2267 36.1075 46.2267 32.5344V31.708C46.2267 31.0153 46.1785 30.3225 46.094 29.6541H60.9517C60.9759 29.6541 61 29.6298 61 29.6055V28.8034C60.9759 23.4073 57.5481 18.8255 52.7564 17.1605ZM43.7283 11.412C43.7283 8.6167 45.9854 6.34403 48.7614 6.34403C51.5374 6.34403 53.7944 8.6167 53.7944 11.412C53.7944 14.1708 51.5857 16.4191 48.8579 16.4799H48.7614H48.6648C45.925 16.4313 43.7283 14.1829 43.7283 11.412ZM30.4155 1.94453C26.6136 1.94453 23.5237 5.05578 23.5237 8.88408C23.5237 12.5787 26.4084 15.6049 30.0172 15.8115H30.4155H30.8138C34.4226 15.6049 37.3073 12.5787 37.3073 8.88408C37.3073 5.05578 34.2174 1.94453 30.4155 1.94453ZM7.1573 11.412C7.1573 8.6167 9.41432 6.34403 12.1903 6.34403C14.9664 6.34403 17.2234 8.6167 17.2234 11.412C17.2234 14.1708 15.0146 16.4191 12.2869 16.4799H12.1903H12.0938C9.36605 16.4313 7.1573 14.1829 7.1573 11.412ZM1.95528 27.6974H15.1474C15.8112 25.1209 17.1027 22.7875 18.8407 20.8916C17.0665 19.3724 14.7732 18.4366 12.2628 18.4244H12.1903H12.1179C6.84349 18.4609 2.49842 22.5201 1.95528 27.6974ZM44.2715 32.5344C44.2715 35.0259 42.2558 37.0555 39.7816 37.0555H21.0736C18.5993 37.0555 16.5837 35.0259 16.5837 32.5344V31.708C16.5837 24.1608 22.5702 17.9869 30.0172 17.7682C30.15 17.7803 30.2948 17.7803 30.4276 17.7803C30.5603 17.7803 30.7052 17.7803 30.838 17.7682C38.2849 17.9869 44.2715 24.1608 44.2715 31.708V32.5344ZM42.0507 20.9402C43.7766 22.8361 45.0439 25.1331 45.7078 27.6974H58.9964C58.4533 22.5201 54.1082 18.4609 48.8338 18.4244H48.7614H48.689C46.1543 18.4487 43.837 19.3845 42.0507 20.9402Z" fill="#00B287"/>
</svg>
