<svg width="67" height="63" viewBox="0 0 67 63" fill="none" xmlns="http://www.w3.org/2000/svg">
<mask id="mask0" mask-type="alpha" maskUnits="userSpaceOnUse" x="1" y="1" width="65" height="61">
<path fill-rule="evenodd" clip-rule="evenodd" d="M1 1H66V62H1V1Z" fill="#00B287"/>
</mask>
<g mask="url(#mask0)">
<path fill-rule="evenodd" clip-rule="evenodd" d="M63.8726 56.7013L62.5523 51.7194L58.9105 58.0265L63.8726 56.7013ZM15.6109 49.4033L32.5432 59.3633V39.4192L15.6109 29.4587V49.4033ZM8.09005 58.0265L4.44772 51.7194L3.12791 56.7013L8.09005 58.0265ZM29.8697 6.96457H37.1309L33.5 3.3194L29.8697 6.96457ZM65.2892 58.3115L57.1702 60.4799C57.0888 60.5013 57.0057 60.5117 56.9242 60.5117C56.6306 60.5117 56.348 60.3761 56.1637 60.1346C55.9292 59.8261 55.9024 59.4056 56.0965 59.069L58.595 54.7432L52.3464 51.0672L33.9839 61.8682C33.9729 61.8748 33.9609 61.877 33.9494 61.8825C33.8969 61.9111 33.8423 61.9336 33.7843 61.9517C33.7652 61.9583 33.7466 61.9654 33.7269 61.9704C33.6542 61.9879 33.5787 62 33.5 62C33.4218 62 33.3464 61.9879 33.2731 61.9704C33.254 61.9654 33.2354 61.9583 33.2157 61.9517C33.1583 61.9336 33.1031 61.9111 33.0506 61.8825C33.0396 61.877 33.0276 61.8748 33.0161 61.8682L14.6541 51.0672L8.40552 54.7426L10.9041 59.069C11.0982 59.4056 11.0714 59.8261 10.8363 60.1346C10.6526 60.3761 10.3694 60.5117 10.0763 60.5117C9.99432 60.5117 9.91176 60.5013 9.8303 60.4799L1.71132 58.3115C1.20067 58.1748 0.89669 57.6489 1.03228 57.1356L3.19242 48.9834C3.29193 48.6084 3.60684 48.3301 3.99065 48.2785C4.37446 48.2241 4.75061 48.413 4.9447 48.7489L7.446 53.0803L13.6973 49.4033V27.7826C13.6973 27.7041 13.7094 27.6289 13.7269 27.5554C13.7318 27.5351 13.7394 27.5153 13.7455 27.4955C13.7624 27.4412 13.7832 27.3901 13.8089 27.3413C13.8193 27.3215 13.8286 27.3023 13.84 27.2831C13.8756 27.2254 13.9155 27.1711 13.962 27.1222C13.9669 27.1167 13.9702 27.1113 13.9751 27.1063C14.0281 27.0525 14.0883 27.0075 14.1522 26.968C14.1588 26.9641 14.1637 26.9575 14.1703 26.9537L16.6021 25.5231C17.0565 25.2541 17.6442 25.4083 17.9116 25.8662C18.1784 26.324 18.0258 26.9125 17.5698 27.181L16.5464 27.7826L33.5 37.7547L50.4536 27.7826L33.5 17.8106L27.6341 21.2609C27.1776 21.5293 26.592 21.3756 26.3247 20.9178C26.0573 20.4599 26.211 19.8714 26.6664 19.6035L32.5432 16.1467V8.88597H27.5597C27.1727 8.88597 26.8238 8.65211 26.6757 8.29308C26.5275 7.93405 26.6095 7.52068 26.8829 7.24619L32.8237 1.28162C33.1977 0.906126 33.8029 0.906126 34.1769 1.28162L40.1171 7.24619C40.391 7.52068 40.4725 7.93405 40.3249 8.29308C40.1762 8.65211 39.8279 8.88597 39.4403 8.88597H34.4568V16.1467L52.8303 26.9537C52.8363 26.9575 52.8412 26.9636 52.8478 26.968C52.9123 27.0075 52.9724 27.0525 53.0255 27.1063C53.0298 27.1107 53.0331 27.1156 53.0375 27.1206C53.0845 27.17 53.125 27.2254 53.1605 27.2836C53.172 27.3023 53.1807 27.321 53.1911 27.3407C53.2168 27.3896 53.2381 27.4417 53.2551 27.4955C53.2611 27.5158 53.2682 27.5351 53.2731 27.5554C53.2912 27.6284 53.3032 27.7041 53.3032 27.7826V40.8981C53.3032 41.429 52.8751 41.8588 52.3464 41.8588C51.8177 41.8588 51.3896 41.429 51.3896 40.8981V29.4587L34.4568 39.4192V59.3633L51.3896 49.4033V45.1126C51.3896 44.5817 51.8177 44.1519 52.3464 44.1519C52.8751 44.1519 53.3032 44.5817 53.3032 45.1126V49.4033L59.5545 53.0803L62.0558 48.7489C62.2494 48.4135 62.6245 48.2247 63.0099 48.2785C63.3937 48.3301 63.7081 48.6084 63.8081 48.9834L65.9677 57.1356C66.1033 57.6489 65.7993 58.1748 65.2892 58.3115ZM20.1362 24.558C19.8689 24.1001 20.0219 23.5117 20.4779 23.2438L22.5943 21.9987C23.0498 21.7302 23.6358 21.884 23.9032 22.3418C24.1706 22.7996 24.0175 23.3881 23.5615 23.6566L21.4451 24.9011C21.2931 24.9906 21.1269 25.0328 20.9623 25.0328C20.6343 25.0328 20.3144 24.8632 20.1362 24.558Z" fill="#00B287"/>
</g>
</svg>
