<svg width="40" height="40" viewBox="0 0 40 40" fill="none" xmlns="http://www.w3.org/2000/svg">
<mask id="mask0" mask-type="alpha" maskUnits="userSpaceOnUse" x="0" y="0" width="40" height="40">
<path fill-rule="evenodd" clip-rule="evenodd" d="M0 0H40V40H0V0Z" fill="#00B287"/>
</mask>
<g mask="url(#mask0)">
<path fill-rule="evenodd" clip-rule="evenodd" d="M16.4752 36.6866C16.4089 36.9551 16.1683 37.1344 15.9039 37.1344C15.8571 37.1344 15.8097 37.1287 15.7622 37.1172C13.9225 36.6634 12.176 35.9168 10.5708 34.899C10.2962 34.7247 10.2148 34.361 10.3887 34.0861C10.5633 33.8116 10.9271 33.7305 11.2013 33.9044C12.6988 34.8542 14.3286 35.5504 16.0445 35.974C16.3604 36.0517 16.5529 36.3713 16.4752 36.6866ZM9.22629 32.4344C9.47156 32.6478 9.49781 33.0199 9.28449 33.2652C9.16842 33.3991 9.00457 33.468 8.8397 33.468C8.70277 33.468 8.5655 33.4206 8.45413 33.3237C8.13147 33.0438 7.81554 32.749 7.51509 32.4476C7.28529 32.2174 7.28563 31.8443 7.5161 31.6148C7.74623 31.385 8.11936 31.3854 8.34848 31.6158C8.62942 31.8975 8.92483 32.173 9.22629 32.4344ZM2.95885 19.6474L3.90698 20.5959H2.01039L2.95885 19.6474ZM3.64286 21.7735H5.32882C5.56703 21.7735 5.78169 21.6298 5.87253 21.4101C5.96371 21.1897 5.91324 20.9364 5.74501 20.7682L3.37504 18.3988C3.14491 18.1687 2.77246 18.1687 2.54232 18.3988L0.17269 20.7682C0.00412692 20.9364 -0.0463409 21.1897 0.0448377 21.4101C0.136016 21.6298 0.350673 21.7735 0.588881 21.7735H2.45922C2.76977 24.8763 3.89688 27.8364 5.73728 30.3656C5.85268 30.5237 6.03201 30.6078 6.21403 30.6078C6.33414 30.6078 6.4556 30.5711 6.5599 30.4951C6.82301 30.3033 6.88088 29.9356 6.68977 29.6721C4.9954 27.3445 3.94903 24.6256 3.64286 21.7735ZM37.0411 20.352L36.093 19.4038H37.9896L37.0411 20.352ZM39.9552 18.5896C39.864 18.3699 39.6493 18.2262 39.4111 18.2262H37.5408C37.2323 15.1433 36.1169 12.2 34.2974 9.68226C34.1069 9.41881 33.7392 9.35892 33.4751 9.55037C33.2116 9.7408 33.1524 10.1089 33.3429 10.3723C35.0177 12.6892 36.0527 15.3926 36.3571 18.2262H34.6715C34.4333 18.2262 34.2183 18.3699 34.1275 18.5896C34.0363 18.8096 34.0868 19.063 34.255 19.2312L36.625 21.6009C36.74 21.716 36.8908 21.7735 37.0411 21.7735C37.1919 21.7735 37.3426 21.716 37.4577 21.6009L39.8273 19.2312C39.9959 19.063 40.0463 18.8096 39.9552 18.5896ZM23.5248 3.31314C23.6029 2.99721 23.9222 2.80644 24.2378 2.88214C27.3792 3.65767 30.2495 5.29083 32.5377 7.60498L32.6996 7.77118C32.9253 8.00502 32.9183 8.37782 32.6841 8.60358C32.5697 8.71326 32.4227 8.7681 32.2756 8.7681C32.1212 8.7681 31.9671 8.70788 31.8517 8.58776L31.7 8.43266C29.5645 6.27294 26.8867 4.7488 23.9555 4.02575C23.6399 3.9477 23.4471 3.62873 23.5248 3.31314ZM20.5964 37.9897L19.6479 37.0412L20.5964 36.0924V37.9897ZM36.6869 23.5247C36.3716 23.4484 36.052 23.6398 35.9739 23.9554C34.3071 30.7104 28.6443 35.6244 21.7739 36.3572V34.6712C21.7739 34.433 21.6303 34.2183 21.4102 34.1272C21.1902 34.037 20.9369 34.0861 20.7686 34.2547L18.3987 36.6247C18.1689 36.8548 18.1689 37.2273 18.3987 37.4574L20.7686 39.8274C20.8813 39.9401 21.0317 40 21.1852 40C21.2609 40 21.3376 39.9852 21.4102 39.9553C21.6303 39.8637 21.7739 39.6494 21.7739 39.4112V37.5395C29.1931 36.8006 35.3209 31.5176 37.1175 24.2374C37.1952 23.9218 37.0025 23.6025 36.6869 23.5247ZM19.404 2.01004L20.3521 2.95851L19.404 3.90698V2.01004ZM3.31314 16.475C3.36058 16.4864 3.40802 16.4921 3.45478 16.4921C3.71923 16.4921 3.9598 16.3125 4.02608 16.044C5.69286 9.28894 11.3557 4.37533 18.2264 3.64219V5.32851C18.2264 5.56672 18.3697 5.78138 18.5898 5.87256C18.6624 5.90251 18.7391 5.91731 18.8148 5.91731C18.9683 5.91731 19.1187 5.85742 19.2314 5.74471L21.6013 3.37471C21.8311 3.14491 21.8311 2.77212 21.6013 2.54232L19.2314 0.172319C19.0631 0.00409047 18.8101 -0.0460415 18.5898 0.0444652C18.3697 0.135645 18.2264 0.350304 18.2264 0.588515V2.45989C10.8069 3.19908 4.67913 8.48212 2.88281 15.7624C2.80476 16.078 2.99754 16.3969 3.31314 16.475ZM23.5235 31.5142C24.6866 30.2902 25.6357 28.4703 26.2592 26.2588C28.4707 25.635 30.2906 24.6862 31.5142 23.5231C30.3461 27.3341 27.3342 30.3457 23.5235 31.5142ZM8.48576 23.5231C9.70977 24.6862 11.5293 25.635 13.7411 26.2588C14.3646 28.4703 15.3134 30.2902 16.4765 31.5142C12.6658 30.3457 9.65426 27.3341 8.48576 23.5231ZM16.4765 8.48548C15.3134 9.70917 14.3646 11.5294 13.7411 13.7409C11.5293 14.3644 9.70977 15.3135 8.48576 16.4767C9.65426 12.6653 12.6658 9.65366 16.4765 8.48548ZM27.0684 20.5885H31.9785C31.5994 22.367 29.5261 23.9399 26.5886 24.9035C26.8672 23.5648 27.0344 22.1143 27.0684 20.5885ZM20.589 25.8907V20.5885H25.8911C25.8494 22.2539 25.632 23.842 25.2784 25.278C23.8425 25.632 22.2544 25.849 20.589 25.8907ZM20.589 31.9785V27.0683C22.1148 27.034 23.5649 26.8664 24.904 26.5878C23.9404 29.5258 22.3674 31.5994 20.589 31.9785ZM19.4114 27.0683V31.9785C17.6326 31.5994 16.0596 29.5258 15.096 26.5878C16.4351 26.8664 17.8852 27.034 19.4114 27.0683ZM14.1089 20.5885H19.4114V25.8907C17.7456 25.849 16.1575 25.632 14.7219 25.278C14.368 23.842 14.1506 22.2539 14.1089 20.5885ZM12.9316 20.5885C12.9656 22.1143 13.1328 23.5648 13.4118 24.9035C10.4742 23.9399 8.40063 22.367 8.02145 20.5885H12.9316ZM12.9316 19.4109H8.02145C8.40063 17.6324 10.4742 16.0595 13.4118 15.0958C13.1328 16.4349 12.9656 17.8851 12.9316 19.4109ZM19.4114 14.109V19.4109H14.1089C14.1506 17.7454 14.368 16.1574 14.7219 14.7217C16.1575 14.3677 17.7456 14.1507 19.4114 14.109ZM19.4114 8.02117V12.9314C17.8852 12.9657 16.4351 13.133 15.096 13.4115C16.0596 10.4739 17.6326 8.40036 19.4114 8.02117ZM20.589 12.9314V8.02117C22.3674 8.40036 23.9404 10.4739 24.904 13.4115C23.5649 13.133 22.1148 12.9657 20.589 12.9314ZM25.8911 19.4109H20.589V14.109C22.2544 14.1507 23.8425 14.3677 25.2784 14.7217C25.632 16.1574 25.8494 17.7454 25.8911 19.4109ZM27.0684 19.4109C27.0344 17.8851 26.8672 16.4349 26.5886 15.0958C29.5261 16.0595 31.5994 17.6324 31.9785 19.4109H27.0684ZM31.5142 16.4767C30.2906 15.3135 28.4707 14.3644 26.2592 13.7409C25.6357 11.5294 24.6866 9.70917 23.5235 8.48548C27.3342 9.65366 30.3461 12.6653 31.5142 16.4767ZM20.0002 6.78066C12.7109 6.78066 6.78095 12.7107 6.78095 19.9997C6.78095 27.2887 12.7109 33.2187 20.0002 33.2187C27.2891 33.2187 33.219 27.2887 33.219 19.9997C33.219 12.7107 27.2891 6.78066 20.0002 6.78066Z" fill="#00B287"/>
</g>
</svg>
