<svg width="15" height="15" viewBox="0 0 15 15" fill="none" xmlns="http://www.w3.org/2000/svg">
<path d="M14.6067 11.0085L12.509 8.91518C11.7598 8.16758 10.4862 8.46665 10.1865 9.43851C9.96175 10.1114 9.21258 10.4852 8.53832 10.3356C7.03996 9.96183 5.01718 8.01806 4.64259 6.44809C4.41783 5.77522 4.86734 5.02761 5.5416 4.80336C6.51553 4.50432 6.81521 3.23339 6.06603 2.48578L3.96833 0.392492C3.36899 -0.130831 2.46997 -0.130831 1.94555 0.392492L0.522108 1.81294C-0.901331 3.30815 0.671943 7.27045 4.19308 10.7842C7.71422 14.2979 11.6849 15.9427 13.1832 14.4475L14.6067 13.027C15.1311 12.4289 15.1311 11.5318 14.6067 11.0085Z" fill="#00B287"/>
</svg>
