<svg width="62" height="42" viewBox="0 0 62 42" fill="none" xmlns="http://www.w3.org/2000/svg">
<mask id="mask0" mask-type="alpha" maskUnits="userSpaceOnUse" x="1" y="1" width="60" height="40">
<path fill-rule="evenodd" clip-rule="evenodd" d="M1 1H61V41H1V1Z" fill="white"/>
</mask>
<g mask="url(#mask0)">
<path fill-rule="evenodd" clip-rule="evenodd" d="M26.0783 32.179V9.821C26.0783 9.32948 26.4735 8.93148 26.9615 8.93148C27.4495 8.93148 27.8447 9.32948 27.8447 9.821V32.179C27.8447 32.6705 27.4495 33.0685 26.9615 33.0685C26.4735 33.0685 26.0783 32.6705 26.0783 32.179ZM19.8969 32.179V9.821C19.8969 9.32948 20.2921 8.93148 20.7801 8.93148C21.2682 8.93148 21.6633 9.32948 21.6633 9.821V32.179C21.6633 32.6705 21.2682 33.0685 20.7801 33.0685C20.2921 33.0685 19.8969 32.6705 19.8969 32.179ZM13.7155 32.179V9.821C13.7155 9.32948 14.1107 8.93148 14.5987 8.93148C15.0868 8.93148 15.4819 9.32948 15.4819 9.821V32.179C15.4819 32.6705 15.0868 33.0685 14.5987 33.0685C14.1107 33.0685 13.7155 32.6705 13.7155 32.179ZM50.8038 32.179V9.821C50.8038 9.32948 51.199 8.93148 51.687 8.93148C52.1751 8.93148 52.5702 9.32948 52.5702 9.821V32.179C52.5702 32.6705 52.1751 33.0685 51.687 33.0685C51.199 33.0685 50.8038 32.6705 50.8038 32.179ZM44.6225 32.179V9.821C44.6225 9.32948 45.0176 8.93148 45.5057 8.93148C45.9937 8.93148 46.3889 9.32948 46.3889 9.821V32.179C46.3889 32.6705 45.9937 33.0685 45.5057 33.0685C45.0176 33.0685 44.6225 32.6705 44.6225 32.179ZM38.4411 32.179V9.821C38.4411 9.32948 38.8362 8.93148 39.3243 8.93148C39.8123 8.93148 40.2075 9.32948 40.2075 9.821V32.179C40.2075 32.6705 39.8123 33.0685 39.3243 33.0685C38.8362 33.0685 38.4411 32.6705 38.4411 32.179ZM32.2597 32.179V9.821C32.2597 9.32948 32.6549 8.93148 33.1429 8.93148C33.6309 8.93148 34.0261 9.32948 34.0261 9.821V32.179C34.0261 32.6705 33.6309 33.0685 33.1429 33.0685C32.6549 33.0685 32.2597 32.6705 32.2597 32.179ZM21.1748 40.1105C21.1748 40.6015 20.7796 41 20.2916 41H18.0215C17.5335 41 17.1383 40.6015 17.1383 40.1105C17.1383 39.619 17.5335 39.221 18.0215 39.221H20.2916C20.7796 39.221 21.1748 39.619 21.1748 40.1105ZM8.85391 34.9939H57.4319V7.00554H8.85391V34.9939ZM2.7664 28.6412H7.08802V27.2851H2.7664V28.6412ZM5.81015 25.5061H7.08751V16.4939H5.81015V25.5061ZM2.7664 14.7149H7.08802V13.3588H2.7664V14.7149ZM60.1168 7.00605C60.6048 7.00605 61 6.60754 61 6.11653V1.88952C61 1.398 60.6048 1 60.1168 1H52.6121C52.1241 1 51.7289 1.398 51.7289 1.88952C51.7289 2.38105 52.1241 2.77904 52.6121 2.77904H59.2336V5.22701H7.05218V2.77904H48.7372C49.2252 2.77904 49.6204 2.38105 49.6204 1.88952C49.6204 1.398 49.2252 1 48.7372 1H6.16899C5.68095 1 5.28579 1.398 5.28579 1.88952V6.11653C5.28579 6.60754 5.68095 7.00605 6.16899 7.00605H7.08751V11.5797H5.81015V9.821C5.81015 9.32948 5.41499 8.93148 4.92696 8.93148C4.43892 8.93148 4.04376 9.32948 4.04376 9.821V11.5797H1.8832C1.39517 11.5797 1 11.9777 1 12.4692V15.6044C1 16.0954 1.39517 16.4939 1.8832 16.4939H4.04376V25.5061H1.8832C1.39517 25.5061 1 25.9041 1 26.3956V29.5308C1 30.0223 1.39517 30.4203 1.8832 30.4203H4.04376V32.179C4.04376 32.6705 4.43892 33.0685 4.92696 33.0685C5.41499 33.0685 5.81015 32.6705 5.81015 32.179V30.4203H7.08751V34.9939H6.16899C5.68095 34.9939 5.28579 35.3919 5.28579 35.8835V40.1105C5.28579 40.6015 5.68095 41 6.16899 41H13.8644C14.3525 41 14.7476 40.6015 14.7476 40.1105C14.7476 39.619 14.3525 39.221 13.8644 39.221H7.05218V36.773H59.2336V39.221H24.6607C24.1731 39.221 23.7775 39.619 23.7775 40.1105C23.7775 40.6015 24.1731 41 24.6607 41H60.1168C60.6048 41 61 40.6015 61 40.1105V35.8835C61 35.3919 60.6048 34.9939 60.1168 34.9939H59.1983V7.00605H60.1168Z" fill="white"/>
</g>
</svg>
