<svg width="52" height="52" viewBox="0 0 52 52" fill="none" xmlns="http://www.w3.org/2000/svg">
<path d="M23.7073 35.7076C24.0976 35.3165 24.0976 34.6835 23.7073 34.2924C23.3165 33.9025 22.6836 33.9025 22.2925 34.2924C21.9025 34.6835 21.9025 35.3165 22.2925 35.7076C22.6836 36.0975 23.3165 36.0975 23.7073 35.7076Z" fill="white"/>
<path fill-rule="evenodd" clip-rule="evenodd" d="M30 22C23.9346 22 19 17.0651 19 10.9998C19 4.93452 23.9346 0 30 0C36.0654 0 41 4.93452 41 10.9998C41 17.0651 36.0654 22 30 22ZM30 19.9999C34.9627 19.9999 39.0002 15.9625 39.0002 10.9998C39.0002 6.03755 34.9627 2.00014 30 2.00014C25.0373 2.00014 20.9998 6.03755 20.9998 10.9998C20.9998 15.9625 25.0373 19.9999 30 19.9999Z" fill="white"/>
<path fill-rule="evenodd" clip-rule="evenodd" d="M11.6987 51.7041C12.0924 52.0951 12.7333 52.0994 13.1321 51.7123L18.0563 46.9322C18.8929 46.1079 19.1472 44.8874 18.7794 43.8265L19.8386 42.82C20.4088 42.2772 21.1597 41.9781 21.9534 41.9781H35.4555C37.8509 41.9781 40.1149 41.0716 41.8313 39.4257C41.834 39.4231 41.8358 39.4216 41.8371 39.4206C41.8379 39.42 41.8385 39.4195 41.8391 39.4191C41.8545 39.4076 41.8673 39.3925 43.5219 37.4426C44.7989 35.9378 47.0538 33.2805 51.0427 28.5829C52.4884 26.8975 52.2721 24.3667 50.5601 22.9406C48.8588 21.5277 46.3102 21.7307 44.8605 23.3871L38.8672 29.4569C38.1104 28.5391 36.9564 27.967 35.7095 27.967H24.3837C22.7721 27.3026 21.062 26.9663 19.2976 26.9663C14.4068 26.9663 10.1363 29.1922 7.84448 33.3654C6.87894 33.1851 5.86062 33.4729 5.12803 34.1948L0.29635 38.9698C-0.0981211 39.3596 -0.0989148 39.9904 0.294763 40.3814L11.6987 51.7041ZM19.2972 28.9677C20.8529 28.9677 22.357 29.2762 23.7686 29.8847C23.8972 29.9402 24.0357 29.9688 24.1758 29.9688H35.7095C36.8107 29.9688 37.741 30.8537 37.741 31.9701C37.741 33.074 36.8298 33.9719 35.7095 33.9719H27.4228C26.862 33.9719 26.4073 34.42 26.4073 34.9725C26.4073 35.5255 26.862 35.9732 27.4228 35.9732H35.7095C37.9497 35.9732 39.772 34.1775 39.772 31.9701C39.772 31.7941 39.7593 31.6197 39.7363 31.4469C41.6205 29.5385 42.9787 28.1631 43.9549 27.1745L43.9639 27.1654C45.9838 25.12 46.3628 24.7361 46.3864 24.7085C47.1102 23.8665 48.3953 23.7598 49.2501 24.4699C50.1057 25.1828 50.214 26.4482 49.4882 27.2948L40.3784 38.0258C39.0482 39.2842 37.3016 39.9767 35.4555 39.9767H21.9534C20.6303 39.9767 19.3778 40.4753 18.4277 41.3798L17.5646 42.2006L9.6077 34.3606C11.4673 30.9229 14.9569 28.9677 19.2972 28.9677ZM7.82305 35.4684C7.41469 35.2197 6.90037 35.2791 6.56543 35.6092L2.44808 39.6779L12.4277 49.5866L16.6256 45.5115C17.0042 45.1385 17.0261 44.5011 16.6201 44.101C8.06355 35.6815 7.97336 35.5542 7.85052 35.484C7.84234 35.4794 7.83402 35.475 7.82305 35.4684Z" fill="white"/>
<path d="M29.0423 5.00028V6.17209C27.8906 6.58471 27.0632 7.69634 27.0632 9.00022C27.0632 10.6542 28.3947 12.0003 30.0316 12.0003C30.5771 12.0003 31.021 12.4488 31.021 13.0002C31.021 13.5515 30.5771 14.0001 30.0316 14.0001C29.6091 14.0001 29.1525 13.7316 28.7469 13.2436C28.3951 12.8208 27.7711 12.7665 27.3528 13.1217C26.9345 13.4773 26.8804 14.1079 27.2322 14.5307C27.7611 15.1664 28.3831 15.6095 29.0423 15.833V17.0001C29.0423 17.5526 29.4853 18 30.0316 18C30.5779 18 31.021 17.5526 31.021 17.0001V15.8283C32.1727 15.4153 33 14.3037 33 13.0002C33 11.3458 31.6685 10.0001 30.0316 10.0001C29.4861 10.0001 29.0423 9.55155 29.0423 9.00022C29.0423 8.4489 29.4861 7.99994 30.0316 7.99994C30.3823 7.99994 30.7523 8.18085 31.1018 8.52275C31.4945 8.90684 32.1209 8.89629 32.5009 8.49969C32.8809 8.10271 32.8705 7.46972 32.4781 7.08563C31.9759 6.59447 31.4733 6.31666 31.021 6.16506V5.00028C31.021 4.44778 30.5779 4 30.0316 4C29.4853 4 29.0423 4.44778 29.0423 5.00028Z" fill="white"/>
</svg>
