<svg width="43" height="43" viewBox="0 0 43 43" fill="none" xmlns="http://www.w3.org/2000/svg">
<path fill-rule="evenodd" clip-rule="evenodd" d="M33.1683 27.3684L41.8717 33.173C42.9972 33.9214 43.3348 35.423 42.6377 36.5812L40.4493 40.2187C39.7775 41.3626 38.6885 42.2017 37.4112 42.5598C36.3133 42.8567 35.1805 43.0046 34.0433 42.9998C29.1019 42.9998 21.9126 40.4028 12.2555 30.7457C0.115519 18.6035 -0.870396 10.3618 0.440154 5.58628C0.79863 4.30907 1.63759 3.22021 2.78112 2.54789L6.42055 0.361529C7.57844 -0.334562 9.07902 0.00319612 9.82696 1.12833L15.6311 9.83228C16.3609 10.9372 16.1202 12.4174 15.0779 13.234L11.8205 15.7687C11.3907 16.0971 11.2684 16.6919 11.5339 17.1632L11.7983 17.6455L11.7983 17.6455C12.6697 19.2413 13.7567 21.2321 17.7644 25.2415C21.7721 29.2509 23.7613 30.3359 25.3599 31.2073L25.8422 31.4732C26.3135 31.735 26.9058 31.6104 27.2316 31.1808L29.7668 27.9209C30.5833 26.8782 32.0638 26.6377 33.1683 27.3684ZM39.2197 39.4856L41.403 35.8459C41.7057 35.3435 41.5592 34.6919 41.0707 34.3675L32.368 28.563C31.8887 28.2464 31.2466 28.3505 30.8919 28.8023L28.3575 32.0608C27.5993 33.0524 26.2274 33.3355 25.1387 32.725L24.6679 32.4656L24.6662 32.4646C22.9876 31.549 20.8988 30.4096 16.7435 26.2548C12.5882 22.0999 11.449 20.0103 10.5333 18.3309L10.5323 18.3291L10.2736 17.859C9.66313 16.7701 9.94628 15.3982 10.9378 14.6399L14.196 12.1053C14.6481 11.7507 14.7522 11.1083 14.4353 10.6291L11.789 6.65977L8.63615 1.92587C8.3116 1.43762 7.66031 1.29108 7.15791 1.5934L3.51848 3.7769C2.69186 4.26011 2.08407 5.04438 1.82242 5.96544C0.612128 10.3747 1.6145 18.0761 13.2694 29.7318C24.9243 41.3875 32.6258 42.39 37.0341 41.1796C37.954 40.9183 38.7372 40.3112 39.2197 39.4856Z" fill="white"/>
<path d="M24.7 7.39995C31.2691 7.40725 36.5927 12.7309 36.6 19.3C36.6 19.6866 36.9134 20 37.3 20C37.6866 20 38 19.6866 38 19.3C37.9919 11.958 32.042 6.00804 24.7 6C24.3134 6 24 6.31336 24 6.69998C24 7.08659 24.3134 7.39995 24.7 7.39995Z" fill="white"/>
<path d="M23.7143 11.4285C28.0516 11.4336 31.5664 14.9484 31.5715 19.2857C31.5715 19.6802 31.8913 20 32.2857 20C32.6802 20 33 19.6802 33 19.2857C32.9941 14.1598 28.8402 10.0059 23.7143 10C23.3198 10 23 10.3198 23 10.7143C23 11.1088 23.3198 11.4285 23.7143 11.4285Z" fill="white"/>
<path d="M23.75 15.5C25.82 15.5024 27.4975 17.1799 27.5 19.25C27.5 19.6643 27.8359 20 28.25 20C28.6642 20 29 19.6643 29 19.25C28.9967 16.3519 26.6481 14.0033 23.75 14C23.3357 14 23 14.3357 23 14.75C23 15.1642 23.3357 15.5 23.75 15.5Z" fill="white"/>
</svg>
