<svg width="15" height="21" viewBox="0 0 15 21" fill="none" xmlns="http://www.w3.org/2000/svg">
<path fill-rule="evenodd" clip-rule="evenodd" d="M0 7.54501C0 3.38469 3.36448 0 7.5 0C11.6355 0 14.9999 3.38469 15 7.54501C15 12.7081 8.28823 20.2878 8.00248 20.608C7.73455 20.9082 7.26593 20.9087 6.99752 20.608C6.71177 20.2878 0 12.7081 0 7.54501ZM3.7266 7.54501C3.7266 9.6382 5.41932 11.3411 7.5 11.3411C9.58064 11.3411 11.2734 9.63824 11.2734 7.54505C11.2734 5.45187 9.58064 3.74895 7.5 3.74895C5.41936 3.74895 3.7266 5.45183 3.7266 7.54501Z" fill="#00B287"/>
</svg>
