<svg width="35" height="41" viewBox="0 0 35 41" fill="none" xmlns="http://www.w3.org/2000/svg">
<mask id="mask0" mask-type="alpha" maskUnits="userSpaceOnUse" x="0" y="0" width="35" height="41">
<path fill-rule="evenodd" clip-rule="evenodd" d="M0 0H35V40.625H0V0Z" fill="white"/>
</mask>
<g mask="url(#mask0)">
<path fill-rule="evenodd" clip-rule="evenodd" d="M17.5 24.7088C16.6509 24.7088 15.9604 24.0199 15.9604 23.1735C15.9604 22.3267 16.6509 21.6382 17.5 21.6382C18.3491 21.6382 19.0396 22.3267 19.0396 23.1735C19.0396 24.0199 18.3491 24.7088 17.5 24.7088ZM26.5442 23.1735C26.5442 22.8434 26.2755 22.5755 25.9445 22.5755H20.1707C19.9397 21.549 19.1287 20.7405 18.0997 20.5102V14.7523C18.0997 14.4223 17.8314 14.1544 17.5 14.1544C17.1686 14.1544 16.9003 14.4223 16.9003 14.7523V20.5102C15.6781 20.7839 14.7611 21.8729 14.7611 23.1735C14.7611 24.6794 15.9899 25.9048 17.5 25.9048C18.8042 25.9048 19.8962 24.9904 20.1707 23.7715H25.9445C26.2755 23.7715 26.5442 23.5036 26.5442 23.1735ZM24.272 33.514L23.5014 32.2029C23.3334 31.9179 22.9665 31.8215 22.6807 31.9893C22.3949 32.156 22.2993 32.5227 22.4665 32.8073L23.2382 34.1202C21.688 34.9318 19.9469 35.4269 18.0997 35.5151V33.9897C18.0997 33.6592 17.8314 33.3917 17.5 33.3917C17.1686 33.3917 16.9003 33.6592 16.9003 33.9897V35.5151C15.0774 35.4279 13.3576 34.9441 11.8231 34.1513L12.5869 32.8347C12.7528 32.549 12.6548 32.183 12.3683 32.0176C12.0812 31.8519 11.7145 31.95 11.549 32.2357L10.7859 33.5509C9.32892 32.6102 8.08198 31.3739 7.13076 29.9267L8.44555 29.1582C8.73133 28.9911 8.82693 28.6248 8.65971 28.3398C8.49283 28.0552 8.12584 27.9585 7.83938 28.1262L6.52288 28.8958C5.70906 27.3499 5.21255 25.6136 5.1238 23.7715H6.65378C6.98479 23.7715 7.25343 23.5036 7.25343 23.1735C7.25343 22.8434 6.98479 22.5755 6.65378 22.5755H5.1238C5.21118 20.7572 5.69673 19.0425 6.49136 17.512L7.81197 18.2737C7.9062 18.3284 8.00968 18.3543 8.11145 18.3543C8.31842 18.3543 8.5199 18.2474 8.63093 18.0557C8.79712 17.77 8.69877 17.404 8.41231 17.2386L7.09375 16.478C8.0371 15.025 9.2765 13.7812 10.728 12.833L11.4986 14.1441C11.6107 14.3338 11.8105 14.4397 12.0168 14.4397C12.1199 14.4397 12.2241 14.4134 12.3193 14.3577C12.6051 14.1906 12.7007 13.8239 12.5335 13.5393L11.7618 12.2264C13.312 11.4152 15.0531 10.9197 16.9003 10.8316V12.3573C16.9003 12.6874 17.1686 12.9553 17.5 12.9553C17.8314 12.9553 18.0997 12.6874 18.0997 12.3573V10.8316C19.9226 10.9187 21.6424 11.4029 23.1769 12.1953L22.4131 13.5119C22.2472 13.7976 22.3452 14.1636 22.6317 14.329C22.7263 14.3836 22.8297 14.4096 22.9315 14.4096C23.1385 14.4096 23.34 14.3023 23.451 14.111L24.2141 12.7961C25.6714 13.7368 26.918 14.9728 27.8692 16.4202L26.5545 17.1887C26.2687 17.3555 26.1731 17.7218 26.3403 18.0068C26.4517 18.1968 26.6521 18.3027 26.8584 18.3027C26.9608 18.3027 27.0654 18.2761 27.1606 18.2204L28.4771 17.4512C29.2909 18.9971 29.7875 20.7333 29.8762 22.5755H28.3462C28.0152 22.5755 27.7466 22.8434 27.7466 23.1735C27.7466 23.5036 28.0152 23.7715 28.3462 23.7715H29.8762C29.7888 25.5894 29.3033 27.3041 28.5086 28.8346L27.1884 28.0729C26.9012 27.9072 26.5346 28.0049 26.3691 28.2909C26.2029 28.5766 26.3012 28.9426 26.5877 29.108L27.9062 29.869C26.9629 31.3219 25.7232 32.5654 24.272 33.514ZM29.2255 16.3208C29.2156 16.3041 29.2029 16.29 29.1916 16.2747C28.0142 14.2975 26.3471 12.6443 24.3583 11.4798C24.3412 11.4675 24.3254 11.4535 24.3066 11.4429C24.2874 11.4316 24.2669 11.4248 24.2466 11.4159C22.2572 10.2759 19.9545 9.62053 17.5 9.62053C15.0191 9.62053 12.6935 10.2899 10.6893 11.4528C10.6687 11.4617 10.6482 11.4688 10.6283 11.4805C10.6115 11.49 10.5978 11.503 10.5827 11.514C8.5994 12.6884 6.94161 14.3508 5.77348 16.3348C5.76115 16.3516 5.74744 16.3673 5.73682 16.3857C5.72551 16.4052 5.71831 16.4254 5.70975 16.4455C4.56663 18.4298 3.90941 20.7258 3.90941 23.1735C3.90941 25.6478 4.58102 27.9673 5.7471 29.966C5.75601 29.9858 5.7632 30.0063 5.77451 30.0261C5.78239 30.0391 5.79336 30.0484 5.80158 30.0607C6.9793 32.0422 8.6484 33.6995 10.641 34.8665C10.6581 34.8791 10.6742 34.8931 10.6934 34.9041C10.7085 34.9126 10.7249 34.9164 10.7403 34.9236C12.7329 36.0679 15.04 36.7261 17.5 36.7261C19.9877 36.7261 22.3188 36.0532 24.3268 34.8849C24.3416 34.8778 24.3573 34.8747 24.3717 34.8661C24.3885 34.8566 24.4019 34.8439 24.4173 34.833C26.4047 33.6561 28.0659 31.9886 29.2341 29.9985C29.2433 29.9855 29.2553 29.9752 29.2632 29.9612C29.2745 29.9417 29.2817 29.9212 29.2903 29.9011C30.4334 27.9171 31.0906 25.6212 31.0906 23.1735C31.0906 20.6991 30.419 18.3796 29.2529 16.3806C29.2437 16.3608 29.2368 16.3403 29.2255 16.3208ZM3.11821 30.8326C3.27446 31.1241 3.16447 31.4863 2.87252 31.6421C2.7824 31.6903 2.68577 31.7132 2.59017 31.7132C2.37601 31.7132 2.16904 31.5984 2.06076 31.3971C1.8065 30.9231 1.57213 30.4324 1.36345 29.9387C1.23495 29.6345 1.37852 29.284 1.68383 29.1558C1.98914 29.028 2.34037 29.1705 2.46921 29.475C2.66281 29.9342 2.88143 30.3914 3.11821 30.8326ZM35 23.1735C35 32.7961 27.1497 40.625 17.5 40.625C12.1535 40.625 7.17017 38.2344 3.82717 34.0665C3.61986 33.8085 3.66201 33.4323 3.92072 33.2259C4.17874 33.0199 4.55635 33.0612 4.76332 33.3192C7.87776 37.2021 12.5201 39.429 17.5 39.429C26.488 39.429 33.8007 32.1366 33.8007 23.1735C33.8007 20.7528 33.2802 18.4237 32.2536 16.2514C32.1124 15.9524 32.2409 15.5964 32.5404 15.4552C32.8399 15.3138 33.1969 15.4423 33.3384 15.7413C34.4408 18.0748 35 20.5751 35 23.1735ZM6.70449 6.06264L8.11522 5.25415L9.50094 7.65945C9.01745 7.90822 8.54766 8.17885 8.09158 8.46999L6.70449 6.06264ZM16.6865 4.01442H18.3135V5.74655C18.0431 5.73425 17.7724 5.72195 17.5 5.72195C17.2272 5.72195 16.9562 5.72981 16.6865 5.74245V4.01442ZM14.8704 2.81877H20.1296V1.19599H14.8704V2.81877ZM26.8848 5.25415L28.2955 6.06264L26.9088 8.46931C26.451 8.17817 25.9826 7.90514 25.5001 7.65774L26.8848 5.25415ZM1.62078 26.8626C1.34117 25.6601 1.19931 24.4187 1.19931 23.1735C1.19931 14.2101 8.51202 6.91794 17.5 6.91794C22.85 6.91794 27.8644 9.54057 30.9134 13.934C31.1016 14.2053 31.4751 14.274 31.7478 14.0853C32.0202 13.8974 32.0881 13.5249 31.8996 13.2533C30.7884 11.652 29.4294 10.2763 27.9004 9.14897L29.6343 6.13986C29.7138 6.00215 29.7347 5.83916 29.6932 5.68607C29.6518 5.53264 29.551 5.40245 29.4133 5.32352L26.9622 3.91943C26.674 3.75472 26.3084 3.85382 26.1436 4.14017L24.4104 7.14825C22.8613 6.48328 21.2138 6.03735 19.5128 5.84087V4.01442H20.7292C21.0606 4.01442 21.3289 3.74686 21.3289 3.41643V0.597994C21.3289 0.267901 21.0606 0 20.7292 0H14.2708C13.9394 0 13.6711 0.267901 13.6711 0.597994V3.41643C13.6711 3.74686 13.9394 4.01442 14.2708 4.01442H15.4872V5.84087C13.7664 6.03838 12.1202 6.48397 10.5872 7.14381L8.8564 4.14017C8.69123 3.85382 8.32596 3.75438 8.03778 3.91943L5.58673 5.32352C5.44898 5.40245 5.34824 5.53264 5.30678 5.68607C5.26532 5.83916 5.28622 6.00215 5.36572 6.13986L7.09889 9.14863C2.79542 12.331 0 17.4324 0 23.1735C0 24.5096 0.152141 25.8416 0.452311 27.1329C0.516732 27.409 0.763104 27.5959 1.03586 27.5959C1.08075 27.5959 1.12667 27.5908 1.17224 27.5802C1.49468 27.5057 1.69548 27.1841 1.62078 26.8626Z" fill="white"/>
</g>
</svg>
