<svg width="50" height="32" viewBox="0 0 50 32" fill="none" xmlns="http://www.w3.org/2000/svg">
<mask id="mask0" mask-type="alpha" maskUnits="userSpaceOnUse" x="0" y="0" width="50" height="32">
<path fill-rule="evenodd" clip-rule="evenodd" d="M0.78125 0H49.7396V31.25H0.78125V0Z" fill="white"/>
</mask>
<g mask="url(#mask0)">
<path fill-rule="evenodd" clip-rule="evenodd" d="M19.9088 11.9501C20.0933 11.9501 20.2778 11.8802 20.4182 11.7403C20.6999 11.4609 20.6999 11.0076 20.4182 10.7282L18.848 9.16805V6.90672C18.848 6.51156 18.5251 6.19085 18.1273 6.19085C17.7295 6.19085 17.4067 6.51156 17.4067 6.90672V7.73631L15.9468 6.28657C15.6656 6.00677 15.2093 6.00677 14.928 6.28657L10.4566 10.7282C10.1749 11.0076 10.1749 11.4609 10.4566 11.7403C10.7379 12.0201 11.1942 12.0201 11.4754 11.7403L15.4374 7.80503L19.3994 11.7403C19.5398 11.8802 19.7243 11.9501 19.9088 11.9501ZM12.7475 11.6981C12.3497 11.6981 12.0268 12.0184 12.0268 12.414V15.995C12.0268 16.3902 12.3497 16.7109 12.7475 16.7109H18.1273C18.5251 16.7109 18.848 16.3902 18.848 15.995V12.414C18.848 12.0184 18.5251 11.6981 18.1273 11.6981C17.7295 11.6981 17.4067 12.0184 17.4067 12.414V15.2791H13.4682V12.414C13.4682 12.0184 13.1457 11.6981 12.7475 11.6981ZM34.3488 16.3407C34.747 16.3407 35.0694 16.0204 35.0694 15.6248C35.0694 15.2296 34.747 14.9089 34.3488 14.9089H32.6991C32.3008 14.9089 31.9784 15.2296 31.9784 15.6248C31.9784 16.0204 32.3008 16.3407 32.6991 16.3407H34.3488ZM40.67 25.0076C40.67 24.268 40.0642 23.6667 39.3197 23.6667C38.5755 23.6667 37.9698 24.268 37.9698 25.0076C37.9698 25.7472 38.5755 26.3485 39.3197 26.3485C40.0642 26.3485 40.67 25.7472 40.67 25.0076ZM42.1113 25.0076C42.1113 26.5363 40.859 27.7803 39.3197 27.7803C37.7807 27.7803 36.5284 26.5363 36.5284 25.0076C36.5284 23.4785 37.7807 22.2349 39.3197 22.2349C40.859 22.2349 42.1113 23.4785 42.1113 25.0076ZM12.5511 25.0076C12.5511 24.268 11.9457 23.6667 11.2012 23.6667C10.4566 23.6667 9.85127 24.268 9.85127 25.0076C9.85127 25.7472 10.4566 26.3485 11.2012 26.3485C11.9457 26.3485 12.5511 25.7472 12.5511 25.0076ZM13.9924 25.0076C13.9924 26.5363 12.7405 27.7803 11.2012 27.7803C9.66225 27.7803 8.40995 26.5363 8.40995 25.0076C8.40995 23.4785 9.66225 22.2349 11.2012 22.2349C12.7405 22.2349 13.9924 23.4785 13.9924 25.0076ZM48.2983 23.2408H45.3436C45.5103 23.8017 45.6038 24.3936 45.6038 25.0076C45.6038 25.6294 45.5091 26.2295 45.3378 26.7965H48.2983V23.2408ZM44.1625 25.0076C44.1625 22.3552 41.9902 20.197 39.3197 20.197C36.6495 20.197 34.4768 22.3552 34.4768 25.0076C34.4768 27.66 36.6495 29.8183 39.3197 29.8183C41.9902 29.8183 44.1625 27.66 44.1625 25.0076ZM33.3019 26.7965C33.1306 26.2295 33.0355 25.6294 33.0355 25.0076C33.0355 24.3936 33.129 23.8017 33.2958 23.2408H17.2246C17.3918 23.8017 17.4853 24.3936 17.4853 25.0076C17.4853 25.6294 17.3902 26.2295 17.2193 26.7965H33.3019ZM16.044 25.0076C16.044 22.3552 13.8713 20.197 11.2012 20.197C8.53102 20.197 6.35833 22.3552 6.35833 25.0076C6.35833 27.66 8.53102 29.8183 11.2012 29.8183C13.8713 29.8183 16.044 27.66 16.044 25.0076ZM5.18304 26.7965C5.01214 26.2295 4.91701 25.6294 4.91701 25.0076C4.91701 24.3936 5.01049 23.8017 5.17769 23.2408H2.22257V26.7965H5.18304ZM30.0936 21.8091H33.9332C35.0328 19.9896 37.0329 18.7652 39.3197 18.7652C41.6068 18.7652 43.6066 19.9896 44.7061 21.8091H48.2983V19.9082H45.5952C45.1974 19.9082 44.8745 19.5874 44.8745 19.1923V16.4343C44.8745 16.0392 45.1974 15.7185 45.5952 15.7185H48.2983V14.5101L43.5996 13.5635H32.6991C32.3008 13.5635 31.9784 13.2428 31.9784 12.8476V6.98035C31.9784 6.58519 32.3008 6.26448 32.6991 6.26448H38.9346L37.9768 4.64784H30.0936V21.8091ZM33.4197 3.2161H34.4904V1.43174H33.4197V3.2161ZM39.7829 7.69622H33.4197V12.1318H42.4111L39.7829 7.69622ZM46.3162 18.476H48.2983V17.1502H46.3162V18.476ZM49.7396 13.9247V22.525V27.5123C49.7396 27.9079 49.4171 28.2282 49.0189 28.2282H44.6925C43.5901 30.0355 41.5974 31.25 39.3197 31.25C37.042 31.25 35.0492 30.0355 33.9468 28.2282H16.574C15.4716 30.0355 13.4789 31.25 11.2012 31.25C8.92347 31.25 6.93074 30.0355 5.82834 28.2282H1.50191C1.10411 28.2282 0.78125 27.9079 0.78125 27.5123V22.525V19.2041C0.78125 18.809 1.10411 18.4883 1.50191 18.4883C1.90013 18.4883 2.22257 18.809 2.22257 19.2041V21.8091H5.81475C6.91427 19.9896 8.914 18.7652 11.2012 18.7652C13.4883 18.7652 15.4881 19.9896 16.5876 21.8091H28.6523V1.43174H26.8782C26.4804 1.43174 26.1575 1.11103 26.1575 0.715871C26.1575 0.32071 26.4804 0 26.8782 0H29.3729C29.7711 0 30.0936 0.32071 30.0936 0.715871V3.2161H31.9784V0.715871C31.9784 0.32071 32.3009 0 32.6991 0H35.2111C35.6089 0 35.9317 0.32071 35.9317 0.715871V3.2161H38.3886C38.6443 3.2161 38.8803 3.35068 39.0096 3.56913L44.1296 12.2095L49.1622 13.2232C49.4983 13.2906 49.7396 13.5844 49.7396 13.9247ZM1.50191 16.5505C1.90013 16.5505 2.22257 16.2298 2.22257 15.8346V13.9942C2.22257 13.5991 1.90013 13.2784 1.50191 13.2784C1.10411 13.2784 0.78125 13.5991 0.78125 13.9942V15.8346C0.78125 16.2298 1.10411 16.5505 1.50191 16.5505ZM0.78125 10.4529V0.715871C0.78125 0.32071 1.10411 0 1.50191 0H23.7168C24.1146 0 24.4374 0.32071 24.4374 0.715871C24.4374 1.11103 24.1146 1.43174 23.7168 1.43174H2.22257V10.4529C2.22257 10.8485 1.90013 11.1688 1.50191 11.1688C1.10411 11.1688 0.78125 10.8485 0.78125 10.4529Z" fill="white"/>
</g>
</svg>
