<svg width="15" height="11" viewBox="0 0 15 11" fill="none" xmlns="http://www.w3.org/2000/svg">
<path d="M9.63477 5.46125L15 8.61641V2.17285L9.63477 5.46125Z" fill="#00B287"/>
<path d="M0 2.17285V8.61641L5.36524 5.46125L0 2.17285Z" fill="#00B287"/>
<path d="M14.0872 0H0.912798C0.443225 0 0.0705772 0.360849 0 0.82549L7.5 5.91908L15 0.82549C14.9294 0.360849 14.5568 0 14.0872 0Z" fill="#00B287"/>
<path d="M9.09074 5.91984L7.75885 6.75374C7.67978 6.80295 7.59036 6.82711 7.5 6.82711C7.40964 6.82711 7.32022 6.80295 7.24115 6.75374L5.90926 5.91895L0 9.47197C0.0724774 9.89698 0.443336 10.2271 0.911145 10.2271H14.0889C14.5567 10.2271 14.9275 9.89698 15 9.47197L9.09074 5.91984Z" fill="#00B287"/>
</svg>
