<svg width="40" height="25" viewBox="0 0 40 25" fill="none" xmlns="http://www.w3.org/2000/svg">
<mask id="mask0" mask-type="alpha" maskUnits="userSpaceOnUse" x="0" y="0" width="40" height="25">
<path fill-rule="evenodd" clip-rule="evenodd" d="M0.625 0H39.7917V25H0.625V0Z" fill="white"/>
</mask>
<g mask="url(#mask0)">
<path fill-rule="evenodd" clip-rule="evenodd" d="M15.927 9.5601C16.0746 9.5601 16.2222 9.50414 16.3346 9.39222C16.5599 9.16871 16.5599 8.80611 16.3346 8.58259L15.0784 7.33444V5.52538C15.0784 5.20925 14.8201 4.95268 14.5019 4.95268C14.1836 4.95268 13.9253 5.20925 13.9253 5.52538V6.18905L12.7575 5.02926C12.5324 4.80541 12.1674 4.80541 11.9424 5.02926L8.3653 8.58259C8.13996 8.80611 8.13996 9.16871 8.3653 9.39222C8.59031 9.61606 8.95533 9.61606 9.18034 9.39222L12.3499 6.24403L15.5195 9.39222C15.6319 9.50414 15.7794 9.5601 15.927 9.5601ZM10.198 9.35851C9.87976 9.35851 9.62147 9.61476 9.62147 9.93121V12.796C9.62147 13.1121 9.87976 13.3687 10.198 13.3687H14.5019C14.8201 13.3687 15.0784 13.1121 15.0784 12.796V9.93121C15.0784 9.61476 14.8201 9.35851 14.5019 9.35851C14.1836 9.35851 13.9253 9.61476 13.9253 9.93121V12.2233H10.7745V9.93121C10.7745 9.61476 10.5166 9.35851 10.198 9.35851ZM27.479 13.0725C27.7976 13.0725 28.0555 12.8163 28.0555 12.4998C28.0555 12.1837 27.7976 11.9271 27.479 11.9271H26.1593C25.8407 11.9271 25.5827 12.1837 25.5827 12.4998C25.5827 12.8163 25.8407 13.0725 26.1593 13.0725H27.479ZM32.536 20.0061C32.536 19.4144 32.0514 18.9333 31.4557 18.9333C30.8604 18.9333 30.3758 19.4144 30.3758 20.0061C30.3758 20.5978 30.8604 21.0788 31.4557 21.0788C32.0514 21.0788 32.536 20.5978 32.536 20.0061ZM33.689 20.0061C33.689 21.229 32.6872 22.2242 31.4557 22.2242C30.2246 22.2242 29.2228 21.229 29.2228 20.0061C29.2228 18.7828 30.2246 17.788 31.4557 17.788C32.6872 17.788 33.689 18.7828 33.689 20.0061ZM10.0409 20.0061C10.0409 19.4144 9.55657 18.9333 8.96093 18.9333C8.3653 18.9333 7.88101 19.4144 7.88101 20.0061C7.88101 20.5978 8.3653 21.0788 8.96093 21.0788C9.55657 21.0788 10.0409 20.5978 10.0409 20.0061ZM11.1939 20.0061C11.1939 21.229 10.1924 22.2242 8.96093 22.2242C7.7298 22.2242 6.72796 21.229 6.72796 20.0061C6.72796 18.7828 7.7298 17.788 8.96093 17.788C10.1924 17.788 11.1939 18.7828 11.1939 20.0061ZM38.6386 18.5927H36.2748C36.4083 19.0413 36.4831 19.5149 36.4831 20.0061C36.4831 20.5035 36.4073 20.9836 36.2702 21.4372H38.6386V18.5927ZM35.33 20.0061C35.33 17.8842 33.5922 16.1576 31.4557 16.1576C29.3196 16.1576 27.5815 17.8842 27.5815 20.0061C27.5815 22.128 29.3196 23.8546 31.4557 23.8546C33.5922 23.8546 35.33 22.128 35.33 20.0061ZM26.6416 21.4372C26.5045 20.9836 26.4284 20.5035 26.4284 20.0061C26.4284 19.5149 26.5032 19.0413 26.6366 18.5927H13.7797C13.9135 19.0413 13.9883 19.5149 13.9883 20.0061C13.9883 20.5035 13.9122 20.9836 13.7754 21.4372H26.6416ZM12.8352 20.0061C12.8352 17.8842 11.0971 16.1576 8.96093 16.1576C6.82482 16.1576 5.08667 17.8842 5.08667 20.0061C5.08667 22.128 6.82482 23.8546 8.96093 23.8546C11.0971 23.8546 12.8352 22.128 12.8352 20.0061ZM4.14643 21.4372C4.00971 20.9836 3.93361 20.5035 3.93361 20.0061C3.93361 19.5149 4.00839 19.0413 4.14215 18.5927H1.77806V21.4372H4.14643ZM24.0749 17.4473H27.1466C28.0262 15.9916 29.6263 15.0122 31.4557 15.0122C33.2855 15.0122 34.8853 15.9916 35.7649 17.4473H38.6386V15.9265H36.4761C36.1579 15.9265 35.8996 15.67 35.8996 15.3538V13.1475C35.8996 12.8313 36.1579 12.5748 36.4761 12.5748H38.6386V11.6081L34.8796 10.8508H26.1593C25.8407 10.8508 25.5827 10.5942 25.5827 10.2781V5.58428C25.5827 5.26815 25.8407 5.01158 26.1593 5.01158H31.1477L30.3814 3.71827H24.0749V17.4473ZM26.7358 2.57288H27.5923V1.14539H26.7358V2.57288ZM31.8264 6.15698H26.7358V9.7054H33.9289L31.8264 6.15698ZM37.053 14.7808H38.6386V13.7202H37.053V14.7808ZM39.7917 11.1398V18.02V22.0099C39.7917 22.3263 39.5337 22.5826 39.2151 22.5826H35.754C34.8721 24.0284 33.2779 25 31.4557 25C29.6336 25 28.0394 24.0284 27.1575 22.5826H13.2592C12.3773 24.0284 10.7831 25 8.96093 25C7.13878 25 5.54459 24.0284 4.66267 22.5826H1.20153C0.883284 22.5826 0.625 22.3263 0.625 22.0099V18.02V15.3633C0.625 15.0472 0.883284 14.7906 1.20153 14.7906C1.5201 14.7906 1.77806 15.0472 1.77806 15.3633V17.4473H4.6518C5.53142 15.9916 7.1312 15.0122 8.96093 15.0122C10.7907 15.0122 12.3905 15.9916 13.2701 17.4473H22.9218V1.14539H21.5026C21.1843 1.14539 20.926 0.888825 20.926 0.572696C20.926 0.256568 21.1843 0 21.5026 0H23.4983C23.8169 0 24.0749 0.256568 24.0749 0.572696V2.57288H25.5827V0.572696C25.5827 0.256568 25.8407 0 26.1593 0H28.1689C28.4871 0 28.7454 0.256568 28.7454 0.572696V2.57288H30.7109C30.9154 2.57288 31.1042 2.68055 31.2077 2.8553L35.3036 9.76758L39.3298 10.5785C39.5986 10.6325 39.7917 10.8675 39.7917 11.1398ZM1.20153 13.2404C1.5201 13.2404 1.77806 12.9838 1.77806 12.6677V11.1954C1.77806 10.8793 1.5201 10.6227 1.20153 10.6227C0.883284 10.6227 0.625 10.8793 0.625 11.1954V12.6677C0.625 12.9838 0.883284 13.2404 1.20153 13.2404ZM0.625 8.36235V0.572696C0.625 0.256568 0.883284 0 1.20153 0H18.9734C19.2917 0 19.5499 0.256568 19.5499 0.572696C19.5499 0.888825 19.2917 1.14539 18.9734 1.14539H1.77806V8.36235C1.77806 8.67881 1.5201 8.93505 1.20153 8.93505C0.883284 8.93505 0.625 8.67881 0.625 8.36235Z" fill="white"/>
</g>
</svg>
