<svg width="50" height="51" viewBox="0 0 50 51" fill="none" xmlns="http://www.w3.org/2000/svg">
<path fill-rule="evenodd" clip-rule="evenodd" d="M25.9642 3.30902C38.8526 3.78237 49.2642 13.7016 49.9985 26.1701C50.0221 26.5823 49.7589 26.9598 49.3631 27.0822C48.9652 27.2047 48.5336 27.0415 48.3192 26.688C47.0801 24.6516 44.7966 23.274 42.1645 23.274C39.2396 23.2733 36.7392 24.9738 35.6354 27.3864C35.4881 27.7074 35.1661 27.9138 34.8111 27.9138C34.4548 27.9131 34.133 27.7068 33.9869 27.3852C32.5908 24.3258 29.5682 22.1052 25.9652 21.765V25.7401V44.7C25.964 48.1794 23.1267 50.9993 19.6252 51C16.1237 50.9994 13.2864 48.1795 13.2852 44.7C13.2852 44.2027 13.6909 43.8 14.1908 43.8C14.6907 43.8 15.0965 44.2026 15.0965 44.7C15.0965 45.9449 15.6026 47.0645 16.4231 47.8817C17.2454 48.6977 18.3716 49.1993 19.6251 49.2C20.8785 49.1993 22.0052 48.6971 22.827 47.8817C23.6476 47.0646 24.1536 45.9455 24.1536 44.7V25.74V21.7524C20.4986 22.0542 17.4253 24.2921 16.0147 27.3852C15.8686 27.7068 15.5456 27.9138 15.1905 27.9138C14.8353 27.9138 14.5123 27.7073 14.365 27.3864C13.2606 24.9738 10.7608 23.2733 7.83589 23.274C5.20383 23.2734 2.92082 24.6517 1.68122 26.688C1.4663 27.0415 1.03466 27.2045 0.637301 27.0822C0.240543 26.9598 -0.0220919 26.583 0.00146504 26.1702C0.738145 13.6638 11.2094 3.7236 24.1527 3.30604V0.899971C24.1527 0.402621 24.5584 0 25.0584 0C25.5584 0 25.9642 0.402521 25.9642 0.899971V3.30902ZM14.3547 24.2239C14.5407 20.8111 15.0389 17.6215 15.7864 14.8111C16.6564 11.5494 17.8538 8.79541 19.3301 6.77344C19.6605 6.3228 20.007 5.91062 20.3681 5.53499C11.1207 7.34579 3.88454 14.4702 2.16609 23.4528C3.71133 22.218 5.68339 21.474 7.83529 21.474C10.4052 21.4747 12.7214 22.5312 14.3547 24.2239ZM24.9994 19.9146C21.4804 19.9153 18.3254 21.4368 16.191 23.8434C16.5165 18.7332 17.5743 14.1918 19.0699 10.8696C19.9153 8.98616 20.9025 7.50049 21.9272 6.52491C22.4393 6.03583 22.9579 5.67475 23.47 5.43778C23.982 5.2013 24.4856 5.08615 24.9995 5.08556C25.514 5.08625 26.0175 5.2013 26.5289 5.43778C27.4238 5.84996 28.344 6.6552 29.2038 7.83179C30.4953 9.59338 31.6366 12.165 32.4614 15.27C33.1395 17.8158 33.6044 20.7222 33.8036 23.8386C31.6697 21.4356 28.5171 19.9153 24.9994 19.9146ZM35.6416 24.225C37.2748 22.5317 39.5922 21.4746 42.1633 21.474C44.3152 21.4747 46.2873 22.2181 47.8318 23.4522C46.114 14.4691 38.8762 7.344 29.6269 5.5344C30.7585 6.70989 31.7416 8.26867 32.5827 10.1359C34.242 13.8318 35.3421 18.7374 35.6416 24.225Z" fill="white"/>
</svg>
