<svg width="42" height="45" viewBox="0 0 42 45" fill="none" xmlns="http://www.w3.org/2000/svg">
<mask id="mask0" mask-type="alpha" maskUnits="userSpaceOnUse" x="1" y="0" width="40" height="45">
<path fill-rule="evenodd" clip-rule="evenodd" d="M1 0H41V45H1V0Z" fill="white"/>
</mask>
<g mask="url(#mask0)">
<path fill-rule="evenodd" clip-rule="evenodd" d="M21 8.01913C18.6354 8.01913 16.7119 9.93401 16.7119 12.288C16.7119 14.6419 18.6354 16.5568 21 16.5568C23.3646 16.5568 25.2878 14.6419 25.2878 12.288C25.2878 9.93401 23.3646 8.01913 21 8.01913ZM21 6.69434C24.098 6.69434 26.6185 9.20349 26.6185 12.288C26.6185 15.3721 24.098 17.8816 21 17.8816C17.902 17.8816 15.3811 15.3721 15.3811 12.288C15.3811 9.20349 17.902 6.69434 21 6.69434ZM30.4055 6.5823C30.531 6.7867 30.75 6.89949 30.974 6.89949C31.0922 6.89949 31.212 6.86808 31.3203 6.80259C31.634 6.61182 31.7329 6.20417 31.5412 5.8919C31.1945 5.32716 30.7987 4.78513 30.3633 4.28096C30.1242 4.00389 29.704 3.97133 29.4249 4.21017C29.1466 4.44864 29.1147 4.86689 29.3542 5.14434C29.7424 5.59439 30.0964 6.07812 30.4055 6.5823ZM21 41.4931C21.3871 41.4931 21.7699 41.4882 22.1486 41.4795C22.5159 41.4708 22.8072 41.1676 22.7984 40.8016C22.7901 40.4363 22.4863 40.1358 22.1175 40.1551C21.1901 40.1763 20.2243 40.1713 19.2818 40.1369C18.9152 40.1312 18.6057 40.409 18.5921 40.7743C18.5788 41.1399 18.8654 41.4473 19.2327 41.4609C19.8175 41.4821 20.4118 41.4931 21 41.4931ZM15.391 41.1524C15.4195 41.1562 15.448 41.1577 15.4762 41.1577C15.8062 41.1577 16.0925 40.914 16.1355 40.5794C16.1822 40.2168 15.9244 39.8848 15.5598 39.8382C12.607 39.462 10.2371 38.8 8.88768 37.9745C8.57438 37.7826 8.1645 37.8802 7.97211 38.1917C7.77972 38.5036 7.87744 38.9113 8.19074 39.1028C9.69755 40.0249 12.2549 40.7527 15.391 41.1524ZM41 37.1345C41 41.5453 32.215 45 21 45C9.785 45 1 41.5453 1 37.1345C1 36.2549 1.33726 35.4002 2.00188 34.5951C2.23534 34.3124 2.65472 34.2719 2.93837 34.5039C3.22239 34.7359 3.26346 35.1534 3.03 35.4362C2.56613 35.9979 2.33077 36.5698 2.33077 37.1345C2.33077 40.2932 9.83253 43.6752 21 43.6752C32.1675 43.6752 39.6692 40.2932 39.6692 37.1345C39.6692 34.3324 34.107 31.7279 26.3866 30.8827C23.8414 34.8162 21.5327 37.5331 21.5068 37.5638C21.3806 37.7118 21.1951 37.7969 21 37.7969C20.8049 37.7969 20.6194 37.7118 20.4932 37.5638C20.4669 37.5331 18.1586 34.8166 15.6138 30.8831C11.3317 31.3517 7.6398 32.3619 5.18661 33.7442C5.08319 33.8029 4.97027 33.8305 4.85924 33.8305C4.62731 33.8305 4.40222 33.7098 4.27979 33.4944C4.0988 33.1757 4.21135 32.7718 4.53111 32.5913C7.01205 31.1931 10.6409 30.1575 14.8298 29.64C14.7419 29.4977 14.6541 29.358 14.5663 29.2131C10.6162 22.7034 8.62799 17.0076 8.65689 12.2838C8.65689 5.51225 14.194 0 21 0C23.5566 0 26.0094 0.771405 28.093 2.23019C28.3934 2.44064 28.466 2.85397 28.2546 3.15337C28.0432 3.4524 27.6292 3.52431 27.3276 3.31386C25.4691 2.01254 23.2809 1.32479 21 1.32479C14.9275 1.32479 9.98766 6.24278 9.98766 12.288C9.92987 21.7008 18.7666 33.3059 21 36.0868C23.2334 33.3059 32.0698 21.7008 32.0127 12.2921C32.0127 11.2107 31.8564 10.1471 31.5477 9.12627C31.442 8.77615 31.6412 8.40634 31.9933 8.30112C32.3443 8.19514 32.7161 8.39423 32.8222 8.74473C33.1682 9.88935 33.3435 11.0813 33.3435 12.288C33.372 17.0076 31.3842 22.7034 27.4341 29.2131C27.3459 29.3577 27.2584 29.4973 27.1706 29.64C35.4868 30.6632 41 33.622 41 37.1345Z" fill="white"/>
</g>
</svg>
