<svg width="37" height="41" viewBox="0 0 37 41" fill="none" xmlns="http://www.w3.org/2000/svg">
<mask id="mask0" mask-type="alpha" maskUnits="userSpaceOnUse" x="1" y="0" width="35" height="41">
<path fill-rule="evenodd" clip-rule="evenodd" d="M1 0H36V41H1V0Z" fill="white"/>
</mask>
<g mask="url(#mask0)">
<path fill-rule="evenodd" clip-rule="evenodd" d="M18.5 24.9369C17.6509 24.9369 16.9604 24.2416 16.9604 23.3874C16.9604 22.5328 17.6509 21.8379 18.5 21.8379C19.3491 21.8379 20.0396 22.5328 20.0396 23.3874C20.0396 24.2416 19.3491 24.9369 18.5 24.9369ZM27.5442 23.3874C27.5442 23.0542 27.2755 22.7839 26.9445 22.7839H21.1707C20.9397 21.7479 20.1287 20.9319 19.0997 20.6995V14.8885C19.0997 14.5554 18.8314 14.285 18.5 14.285C18.1686 14.285 17.9003 14.5554 17.9003 14.8885V20.6995C16.6781 20.9757 15.7611 22.0748 15.7611 23.3874C15.7611 24.9072 16.9899 26.1439 18.5 26.1439C19.8042 26.1439 20.8962 25.221 21.1707 23.9909H26.9445C27.2755 23.9909 27.5442 23.7205 27.5442 23.3874ZM25.272 33.8234L24.5014 32.5001C24.3334 32.2125 23.9665 32.1152 23.6807 32.2846C23.3949 32.4529 23.2993 32.8229 23.4665 33.1102L24.2382 34.4351C22.688 35.2542 20.9469 35.7539 19.0997 35.8429V34.3034C19.0997 33.9699 18.8314 33.6999 18.5 33.6999C18.1686 33.6999 17.9003 33.9699 17.9003 34.3034V35.8429C16.0774 35.7549 14.3576 35.2666 12.8231 34.4665L13.5869 33.1378C13.7528 32.8495 13.6548 32.4801 13.3683 32.3132C13.0812 32.1459 12.7145 32.2449 12.549 32.5332L11.7859 33.8606C10.3289 32.9112 9.08198 31.6635 8.13076 30.203L9.44555 29.4274C9.73133 29.2587 9.82693 28.889 9.65971 28.6014C9.49283 28.3141 9.12584 28.2165 8.83938 28.3859L7.52288 29.1625C6.70906 27.6023 6.21255 25.8501 6.1238 23.9909H7.65378C7.98479 23.9909 8.25343 23.7205 8.25343 23.3874C8.25343 23.0542 7.98479 22.7839 7.65378 22.7839H6.1238C6.21118 20.9488 6.69673 19.2183 7.49136 17.6737L8.81197 18.4424C8.9062 18.4975 9.00968 18.5238 9.11145 18.5238C9.31842 18.5238 9.5199 18.4158 9.63093 18.2223C9.79712 17.934 9.69877 17.5647 9.41231 17.3978L8.09375 16.6301C9.0371 15.1637 10.2765 13.9084 11.728 12.9514L12.4986 14.2747C12.6107 14.4661 12.8105 14.573 13.0168 14.573C13.1199 14.573 13.2241 14.5464 13.3193 14.4902C13.6051 14.3216 13.7007 13.9515 13.5335 13.6643L12.7618 12.3393C14.312 11.5206 16.0531 11.0205 17.9003 10.9315V12.4714C17.9003 12.8045 18.1686 13.0749 18.5 13.0749C18.8314 13.0749 19.0997 12.8045 19.0997 12.4714V10.9315C20.9226 11.0195 22.6424 11.5082 24.1769 12.3079L23.4131 13.6367C23.2472 13.925 23.3452 14.2943 23.6317 14.4612C23.7263 14.5164 23.8297 14.5426 23.9315 14.5426C24.1385 14.5426 24.34 14.4343 24.451 14.2412L25.2141 12.9142C26.6714 13.8636 27.918 15.111 28.8692 16.5718L27.5545 17.3474C27.2687 17.5157 27.1731 17.8854 27.3403 18.173C27.4517 18.3648 27.6521 18.4717 27.8584 18.4717C27.9608 18.4717 28.0654 18.4448 28.1606 18.3886L29.4771 17.6123C30.2909 19.1724 30.7875 20.9247 30.8762 22.7839H29.3462C29.0152 22.7839 28.7466 23.0542 28.7466 23.3874C28.7466 23.7205 29.0152 23.9909 29.3462 23.9909H30.8762C30.7888 25.8256 30.3033 27.5561 29.5086 29.1008L28.1884 28.3321C27.9012 28.1648 27.5346 28.2634 27.3691 28.5521C27.2029 28.8404 27.3012 29.2097 27.5877 29.3767L28.9062 30.1447C27.9629 31.611 26.7232 32.866 25.272 33.8234ZM30.2255 16.4715C30.2156 16.4546 30.2029 16.4404 30.1916 16.4249C29.0142 14.4295 27.3471 12.7611 25.3583 11.5857C25.3412 11.5733 25.3254 11.5592 25.3066 11.5485C25.2874 11.5371 25.2669 11.5302 25.2466 11.5213C23.2572 10.3708 20.9545 9.70934 18.5 9.70934C16.0191 9.70934 13.6935 10.3849 11.6893 11.5585C11.6687 11.5675 11.6482 11.5747 11.6283 11.5864C11.6115 11.5961 11.5978 11.6092 11.5827 11.6202C9.5994 12.8055 7.94161 14.4833 6.77348 16.4856C6.76115 16.5025 6.74744 16.5184 6.73682 16.537C6.72551 16.5566 6.71831 16.577 6.70975 16.5973C5.56663 18.6 4.90941 20.9171 4.90941 23.3874C4.90941 25.8846 5.58102 28.2255 6.7471 30.2426C6.75601 30.2626 6.7632 30.2833 6.77451 30.3033C6.78239 30.3164 6.79336 30.3257 6.80158 30.3381C7.9793 32.338 9.6484 34.0106 11.641 35.1883C11.6581 35.2011 11.6742 35.2152 11.6934 35.2263C11.7085 35.2349 11.7249 35.2387 11.7403 35.2459C13.7329 36.4009 16.04 37.0651 18.5 37.0651C20.9877 37.0651 23.3188 36.386 25.3268 35.207C25.3416 35.1997 25.3573 35.1966 25.3717 35.188C25.3885 35.1783 25.4019 35.1656 25.4173 35.1545C27.4047 33.9668 29.0659 32.2839 30.2341 30.2754C30.2433 30.2623 30.2553 30.2519 30.2632 30.2378C30.2745 30.2181 30.2817 30.1974 30.2903 30.1771C31.4334 28.1748 32.0906 25.8577 32.0906 23.3874C32.0906 20.8902 31.419 18.5493 30.2529 16.5318C30.2437 16.5118 30.2368 16.4911 30.2255 16.4715ZM4.11821 31.1172C4.27446 31.4114 4.16447 31.7769 3.87252 31.9342C3.7824 31.9828 3.68577 32.0059 3.59017 32.0059C3.37601 32.0059 3.16904 31.89 3.06076 31.6869C2.8065 31.2086 2.57213 30.7134 2.36345 30.215C2.23495 29.9081 2.37852 29.5543 2.68383 29.4249C2.98914 29.296 3.34037 29.4398 3.46921 29.747C3.66281 30.2105 3.88143 30.672 4.11821 31.1172ZM36 23.3874C36 33.0988 28.1497 41 18.5 41C13.1535 41 8.17017 38.5873 4.82717 34.381C4.61986 34.1206 4.66201 33.7409 4.92072 33.5326C5.17874 33.3247 5.55635 33.3664 5.76332 33.6268C8.87776 37.5455 13.5201 39.793 18.5 39.793C27.488 39.793 34.8007 32.4332 34.8007 23.3874C34.8007 20.9444 34.2802 18.5938 33.2536 16.4014C33.1124 16.0997 33.2409 15.7403 33.5404 15.5979C33.8399 15.4551 34.1969 15.5848 34.3384 15.8866C35.4408 18.2416 36 20.765 36 23.3874ZM7.70449 6.1186L9.11522 5.30265L10.5009 7.73015C10.0174 7.98122 9.54766 8.25435 9.09158 8.54818L7.70449 6.1186ZM17.6865 4.05148H19.3135V5.7996C19.0431 5.78718 18.7724 5.77477 18.5 5.77477C18.2272 5.77477 17.9562 5.7827 17.6865 5.79546V4.05148ZM15.8704 2.84479H21.1296V1.20703H15.8704V2.84479ZM27.8848 5.30265L29.2955 6.1186L27.9088 8.54749C27.451 8.25366 26.9826 7.97811 26.5001 7.72843L27.8848 5.30265ZM2.62078 27.1105C2.34117 25.897 2.19931 24.6441 2.19931 23.3874C2.19931 14.3412 9.51202 6.9818 18.5 6.9818C23.85 6.9818 28.8644 9.62864 31.9134 14.0626C32.1016 14.3364 32.4751 14.4057 32.7478 14.2153C33.0202 14.0257 33.0881 13.6498 32.8996 13.3756C31.7884 11.7596 30.4294 10.3711 28.9004 9.23342L30.6343 6.19654C30.7138 6.05756 30.7347 5.89306 30.6932 5.73856C30.6518 5.58371 30.551 5.45232 30.4133 5.37266L27.9622 3.9556C27.674 3.78938 27.3084 3.88939 27.1436 4.17839L25.4104 7.21424C23.8613 6.54313 22.2138 6.09308 20.5128 5.89478V4.05148H21.7292C22.0606 4.05148 22.3289 3.78145 22.3289 3.44796V0.603514C22.3289 0.270374 22.0606 0 21.7292 0H15.2708C14.9394 0 14.6711 0.270374 14.6711 0.603514V3.44796C14.6711 3.78145 14.9394 4.05148 15.2708 4.05148H16.4872V5.89478C14.7664 6.09411 13.1202 6.54382 11.5872 7.20975L9.8564 4.17839C9.69123 3.88939 9.32596 3.78903 9.03778 3.9556L6.58673 5.37266C6.44898 5.45232 6.34824 5.58371 6.30678 5.73856C6.26532 5.89306 6.28622 6.05756 6.36572 6.19654L8.09889 9.23308C3.79542 12.4448 1 17.5933 1 23.3874C1 24.7358 1.15214 26.0801 1.45231 27.3833C1.51673 27.662 1.7631 27.8506 2.03586 27.8506C2.08075 27.8506 2.12667 27.8455 2.17224 27.8348C2.49468 27.7596 2.69548 27.4351 2.62078 27.1105Z" fill="white"/>
</g>
</svg>
