<svg width="38" height="38" viewBox="0 0 38 38" fill="none" xmlns="http://www.w3.org/2000/svg">
<mask id="mask0" mask-type="alpha" maskUnits="userSpaceOnUse" x="0" y="0" width="38" height="38">
<path fill-rule="evenodd" clip-rule="evenodd" d="M0 0H38V38H0V0Z" fill="white"/>
</mask>
<g mask="url(#mask0)">
<path fill-rule="evenodd" clip-rule="evenodd" d="M15.6492 11.3654H14.1782C13.8695 11.3654 13.6189 11.616 13.6189 11.9248C13.6189 12.2336 13.8695 12.4842 14.1782 12.4842H15.6492C15.9582 12.4842 16.2085 12.2336 16.2085 11.9248C16.2085 11.616 15.9582 11.3654 15.6492 11.3654ZM11.8251 11.3654H5.54947C5.24071 11.3654 4.99012 11.616 4.99012 11.9248C4.99012 12.2336 5.24071 12.4842 5.54947 12.4842H11.8251C12.1342 12.4842 12.3845 12.2336 12.3845 11.9248C12.3845 11.616 12.1342 11.3654 11.8251 11.3654ZM36.6888 14.3498L33.5756 3.96439H4.42438L1.31118 14.3498H36.6888ZM19.5592 36.8813H25.6884V32.9751H19.5592V36.8813ZM12.3113 36.8813H18.4408V32.9751H12.3113V36.8813ZM19.5592 31.8564H25.6884V30.7517H19.5592V31.8564ZM12.3109 31.8567H18.4405V30.752H12.3109V31.8567ZM19.5592 24.6087H25.6887V23.5041H19.5592V24.6087ZM19.5592 29.6333H25.6887V25.7271H19.5592V29.6333ZM7.79839 36.8813H11.1925V30.1927C11.1925 29.8839 11.4428 29.6333 11.7519 29.6333H18.4405V22.9447C18.4405 22.6356 18.6911 22.3854 18.9998 22.3854H26.2481C26.5572 22.3854 26.8074 22.6356 26.8074 22.9447V30.1927C26.8074 30.1936 26.8071 30.1946 26.8071 30.1959V32.4128C26.8071 32.4138 26.8074 32.4148 26.8074 32.4157C26.8074 32.417 26.8071 32.418 26.8071 32.4189V36.8813H30.2016V18.6994H7.79839V36.8813ZM37.8894 15.2432C37.7836 15.3848 37.617 15.4686 37.4406 15.4686H34.5515V37.4406C34.5515 37.7494 34.3009 38 33.9921 38H26.2478H11.7519H4.0079C3.69882 38 3.44854 37.7494 3.44854 37.4406V33.8195C3.44854 33.5108 3.69882 33.2602 4.0079 33.2602C4.31698 33.2602 4.56725 33.5108 4.56725 33.8195V36.8813H6.67969V18.14C6.67969 17.8313 6.92996 17.5807 7.23904 17.5807H30.761C31.07 17.5807 31.3203 17.8313 31.3203 18.14V36.8813H33.4328V15.4686H4.56725V26.9817C4.56725 27.2908 4.31698 27.541 4.0079 27.541C3.69882 27.541 3.44854 27.2908 3.44854 26.9817V15.4686H0.559406C0.38265 15.4686 0.216442 15.3848 0.110645 15.2432C0.00516661 15.1013 -0.0271161 14.9178 0.0233855 14.7484L3.44854 3.32225V0.559355C3.44854 0.250591 3.69882 0 4.0079 0H27.6551C27.9639 0 28.2145 0.250591 28.2145 0.559355C28.2145 0.868438 27.9639 1.11871 27.6551 1.11871H4.56725V2.84568H33.4328V1.11871H30.1086C29.7995 1.11871 29.5492 0.868438 29.5492 0.559355C29.5492 0.250591 29.7995 0 30.1086 0H33.9921C34.3009 0 34.5515 0.250591 34.5515 0.559355V3.32225L37.9766 14.7484C38.0271 14.9178 37.9948 15.1013 37.8894 15.2432ZM3.44854 31.0528V29.6148C3.44854 29.306 3.69882 29.0554 4.0079 29.0554C4.31698 29.0554 4.56725 29.306 4.56725 29.6148V31.0528C4.56725 31.3616 4.31698 31.6122 4.0079 31.6122C3.69882 31.6122 3.44854 31.3616 3.44854 31.0528Z" fill="white"/>
</g>
</svg>
