<svg width="47" height="48" viewBox="0 0 47 48" fill="none" xmlns="http://www.w3.org/2000/svg">
<mask id="mask0" mask-type="alpha" maskUnits="userSpaceOnUse" x="1" y="0" width="45" height="48">
<path fill-rule="evenodd" clip-rule="evenodd" d="M1 0H46V48H1V0Z" fill="white"/>
</mask>
<g mask="url(#mask0)">
<path fill-rule="evenodd" clip-rule="evenodd" d="M45.7522 30.3133C45.3243 29.3956 44.4341 28.8256 43.4287 28.8256C42.8704 28.8256 42.3184 29.0133 41.8746 29.3545L34.298 35.167C33.5604 32.5588 31.1765 30.6443 28.3572 30.6443H23.0081C20.2387 28.7165 16.7937 28.1164 13.5391 28.9994C13.0444 29.1336 12.7512 29.647 12.8843 30.1465C13.0174 30.6454 13.5253 30.9417 14.0211 30.8069C16.7762 30.0593 19.6936 30.5802 22.0261 32.2353L22.182 32.3455C22.3384 32.4562 22.5246 32.5161 22.716 32.5161H28.3572C30.4209 32.5161 32.1489 33.9835 32.5747 35.9381H23.3448C22.8326 35.9381 22.4169 36.3568 22.4169 36.874C22.4169 37.3906 22.8326 37.8098 23.3448 37.8098H33.606C33.6145 37.8098 33.6198 37.8039 33.6278 37.8023C33.8197 37.7981 34.009 37.7403 34.1676 37.6184L42.9987 30.8438C43.1217 30.7492 43.2744 30.6973 43.4287 30.6973C43.8365 30.6973 44.0147 30.9855 44.0724 31.1096C44.1302 31.2331 44.2368 31.5561 43.9765 31.8727L39.3379 37.5136C39.0113 37.9114 39.0659 38.5013 39.4599 38.8312C39.6333 38.9762 39.8433 39.0468 40.0522 39.0468C40.3183 39.0468 40.5829 38.9312 40.7669 38.7082L45.4049 33.0669C46.0471 32.2861 46.1801 31.231 45.7522 30.3133ZM37.1825 40.1356L36.8357 40.5575C36.5086 40.9554 36.5632 41.5452 36.9577 41.8752C37.1305 42.0201 37.3405 42.0907 37.5494 42.0907C37.8161 42.0907 38.0807 41.9752 38.2642 41.7522L38.611 41.3303C38.9381 40.9324 38.8835 40.3425 38.489 40.0126C38.0945 39.6821 37.5097 39.7377 37.1825 40.1356ZM34.6437 43.2228C32.579 45.7347 29.2496 46.7326 26.1583 45.762L16.1771 42.6287C16.0795 42.5982 15.9761 42.5832 15.8759 42.5864L11.1976 42.7175V28.302C11.1976 27.7854 10.7819 27.3662 10.2697 27.3662H1.92792C1.41571 27.3662 1 27.7854 1 28.302V46.6919C1 47.2085 1.41571 47.6278 1.92792 47.6278C2.44013 47.6278 2.85584 47.2085 2.85584 46.6919V29.2379H9.34173V45.7561H5.29494C4.7822 45.7561 4.36702 46.1753 4.36702 46.6919C4.36702 47.2085 4.7822 47.6278 5.29494 47.6278H10.2697C10.7819 47.6278 11.1976 47.2085 11.1976 46.6919V44.5903L15.773 44.4619L25.6068 47.5486C26.5751 47.8524 27.5613 48 28.5375 48C31.4029 48 34.1723 46.7288 36.0727 44.4181C36.3993 44.0197 36.3447 43.4298 35.9508 43.0998C35.5557 42.7693 34.9709 42.825 34.6437 43.2228ZM28.284 11.325V7.17457C27.4993 7.53287 26.9499 8.32595 26.9499 9.24951C26.9499 10.1736 27.4993 10.9667 28.284 11.325ZM30.1399 13.609V17.7594C30.9246 17.4011 31.4739 16.608 31.4739 15.6845C31.4739 14.7604 30.9246 13.9673 30.1399 13.609ZM28.284 17.7594V13.2924C26.4595 12.8662 25.0941 11.2175 25.0941 9.24951C25.0941 7.28206 26.4595 5.63334 28.284 5.20713V4.3103C28.284 3.79371 28.6992 3.37444 29.2119 3.37444C29.7242 3.37444 30.1399 3.79371 30.1399 4.3103V5.20713C31.9644 5.63334 33.3298 7.28206 33.3298 9.24951C33.3298 9.76664 32.9141 10.1854 32.4019 10.1854C31.8891 10.1854 31.4739 9.76664 31.4739 9.24951C31.4739 8.32595 30.9246 7.53287 30.1399 7.17457V11.641C31.9644 12.0672 33.3298 13.7165 33.3298 15.6845C33.3298 17.6519 31.9644 19.3006 30.1399 19.7269V20.6237C30.1399 21.1403 29.7242 21.5595 29.2119 21.5595C28.6992 21.5595 28.284 21.1403 28.284 20.6237V19.7269C26.4595 19.3006 25.0941 17.6519 25.0941 15.6845C25.0941 15.1674 25.5093 14.7486 26.022 14.7486C26.5342 14.7486 26.9499 15.1674 26.9499 15.6845C26.9499 16.608 27.4993 17.4011 28.284 17.7594ZM20.4227 6.0264C20.6883 6.0264 20.9524 5.91196 21.1359 5.69003C21.2196 5.58896 21.305 5.48949 21.392 5.39109C21.7345 5.00658 21.7022 4.41459 21.3209 4.06965C20.9386 3.72472 20.3522 3.75681 20.0107 4.14185C19.9084 4.25629 19.8087 4.37287 19.7106 4.49159C19.3824 4.8884 19.4354 5.47879 19.8288 5.80982C20.0022 5.95528 20.2132 6.0264 20.4227 6.0264ZM16.8505 12.4667C16.8505 10.6314 17.237 8.8634 17.9995 7.21147C18.2153 6.74301 18.7673 6.54033 19.2323 6.75851C19.6968 6.97617 19.8983 7.53287 19.6819 8.00187C19.0345 9.40406 18.7063 10.9062 18.7063 12.4667C18.7063 18.3092 23.4191 23.0623 29.2119 23.0623C35.0043 23.0623 39.7171 18.3092 39.7171 12.4667C39.7171 6.62482 35.0043 1.87172 29.2119 1.87172C27.2421 1.87172 25.3226 2.42468 23.6603 3.47017C23.2261 3.74344 22.6534 3.60975 22.3819 3.17123C22.111 2.73271 22.2435 2.15569 22.6783 1.88188C24.6349 0.650824 26.8943 0 29.2119 0C36.0276 0 41.5729 5.5927 41.5729 12.4667C41.5729 19.3413 36.0276 24.934 29.2119 24.934C22.3957 24.934 16.8505 19.3413 16.8505 12.4667Z" fill="white"/>
</g>
</svg>
