<svg width="26" height="26" viewBox="0 0 26 26" fill="none" xmlns="http://www.w3.org/2000/svg">
<path fill-rule="evenodd" clip-rule="evenodd" d="M13 0C16.4724 0 19.737 1.35225 22.1924 3.8076C24.6478 6.26295 26 9.52744 26 13C26 16.4724 24.6478 19.737 22.1924 22.1924C19.737 24.6478 16.4724 26 13 26C9.52744 26 6.26295 24.6478 3.8076 22.1924C1.35225 19.737 0 16.4724 0 13C0 9.52744 1.35225 6.26295 3.8076 3.8076C6.26295 1.35225 9.52744 0 13 0ZM13 17.0252C9.7738 17.0252 7.06097 19.3344 6.51726 22.465C8.36304 23.7331 10.5962 24.4766 13 24.4766C15.4038 24.4766 17.637 23.7331 19.4827 22.465C18.939 19.3344 16.2264 17.0252 13 17.0252ZM8.86649 11.3683C8.86649 9.08885 10.7208 7.23474 13 7.23474C15.2792 7.23474 17.1335 9.08905 17.1335 11.3683C17.1335 13.6475 15.2792 15.5018 13 15.5018C10.7208 15.5018 8.86649 13.6475 8.86649 11.3683ZM18.4366 17.5957C19.578 18.6286 20.3922 19.9509 20.8023 21.4083C23.0606 19.311 24.4766 16.318 24.4766 13C24.4766 6.67178 19.3282 1.52344 13 1.52344C6.67178 1.52344 1.52344 6.67178 1.52344 13C1.52344 16.3178 2.93936 19.3108 5.19774 21.4081C5.60776 19.9507 6.42224 18.6284 7.56343 17.5955C8.26366 16.9617 9.06088 16.4619 9.91762 16.1094C8.36899 15.0991 7.34305 13.3513 7.34305 11.3683C7.34305 8.24898 9.88072 5.7113 13 5.7113C16.1193 5.7113 18.6572 8.24898 18.6572 11.3683C18.6572 13.3513 17.6312 15.0991 16.0824 16.1094C16.9393 16.4619 17.7363 16.9619 18.4366 17.5957Z" fill="#00B287"/>
</svg>
