<svg width="178" height="33" viewBox="0 0 178 33" fill="none" xmlns="http://www.w3.org/2000/svg">
<path d="M145.216 1.01041C146.287 1.01041 147.367 1.01041 148.438 1.01041C148.438 2.95571 148.438 4.90101 148.438 6.85672C149.279 6.85672 150.131 6.85672 150.973 6.85672C150.983 7.84497 150.983 8.83323 150.973 9.82148C150.121 9.82148 149.279 9.82148 148.427 9.82148C148.427 14.846 148.427 19.8705 148.427 24.895C147.357 24.895 146.276 24.895 145.206 24.895C145.206 19.8705 145.206 14.846 145.206 9.82148C144.354 9.82148 143.512 9.82148 142.66 9.82148C142.66 8.83323 142.66 7.84497 142.66 6.86712C143.512 6.86712 144.354 6.86712 145.206 6.86712C145.216 4.91141 145.216 2.96611 145.216 1.01041Z" fill="#64727F"/>
<path d="M152.375 1.02081C153.445 1.02081 154.526 1.02081 155.596 1.02081C155.596 2.25873 155.596 3.50705 155.596 4.74497C154.526 4.74497 153.445 4.74497 152.375 4.74497C152.375 3.50705 152.375 2.25873 152.375 1.02081Z" fill="#64727F"/>
<path d="M5.60062 7.12718C7.46063 6.27416 9.61159 6.11812 11.5963 6.56544C13.2277 6.92953 14.7448 7.80336 15.8878 9.03087C16.8958 10.1128 17.6231 11.4339 18.0907 12.8383C16.9062 12.8383 15.7112 12.8487 14.5266 12.8383C13.872 11.5379 12.7913 10.404 11.3885 9.9151C9.93371 9.41577 8.26074 9.39497 6.84755 10.0503C5.6214 10.6121 4.62385 11.6419 4.04195 12.8591C3.32496 14.3466 3.18987 16.0943 3.60552 17.6859C3.96921 19.0799 4.82128 20.3698 6.02665 21.1708C7.53336 22.2007 9.52846 22.4399 11.243 21.8262C12.7081 21.3164 13.872 20.1305 14.5266 18.7366C15.7112 18.7262 16.8958 18.7366 18.0907 18.7366C17.4049 20.7235 16.2515 22.6168 14.4954 23.8339C12.7081 25.103 10.4221 25.5087 8.27113 25.3007C6.71247 25.1654 5.19536 24.6141 3.93804 23.6675C2.14037 22.3359 0.841479 20.3698 0.301141 18.206C-0.311936 15.7614 0.0413624 13.0567 1.37143 10.893C2.37937 9.27014 3.85491 7.91779 5.60062 7.12718Z" fill="#64727F"/>
<path fill-rule="evenodd" clip-rule="evenodd" d="M32.2536 6.96073C30.4767 6.26375 28.492 6.23255 26.6424 6.64865C24.7408 7.08557 23.0783 8.28188 21.8625 9.77986C19.3478 12.9007 19.1608 17.6131 21.2598 20.994C22.0391 22.2631 23.1406 23.3242 24.4395 24.0523C26.2372 25.0718 28.3777 25.4567 30.4248 25.1966C32.2744 24.9574 33.9889 24.0107 35.2671 22.6688V24.8742C35.6346 24.8742 36.0021 24.8753 36.3693 24.8765C37.1024 24.8788 37.834 24.8811 38.561 24.8742C38.5655 22.297 38.5642 19.7218 38.563 17.1477C38.5613 13.7161 38.5596 10.2864 38.5714 6.85671C37.9481 6.84482 37.3215 6.84652 36.6933 6.84821C36.2219 6.84949 35.7497 6.85076 35.2774 6.8463V9.02047C34.4254 8.13624 33.407 7.40805 32.2536 6.96073ZM23.3588 14.253C23.8888 11.954 25.8527 10.0919 28.1595 9.66543C29.3441 9.42617 30.591 9.551 31.6717 10.0503C33.168 10.7161 34.363 12.006 34.9657 13.5248C35.4749 14.8044 35.5892 16.2607 35.2151 17.5923C34.6748 19.548 33.1473 21.202 31.2353 21.8782C28.783 22.7624 25.8631 21.7534 24.3875 19.6312C23.2861 18.102 22.9224 16.0839 23.3588 14.253Z" fill="#64727F"/>
<path fill-rule="evenodd" clip-rule="evenodd" d="M61.0893 6.90873C59.354 6.27417 57.4317 6.25336 55.6444 6.64867C53.6908 7.08558 51.9867 8.3235 50.7709 9.8943C48.4953 12.8279 48.2147 17.0826 49.8877 20.3594C50.6255 21.795 51.7477 23.0225 53.1193 23.8755C54.9897 25.0406 57.2654 25.4879 59.4371 25.2071C61.2868 24.9678 62.9909 24.0211 64.2794 22.6792C64.3314 24.4789 63.7183 26.393 62.2843 27.5581C60.8088 28.7856 58.7513 29.1289 56.9017 28.7856C55.4573 28.5151 54.1792 27.5893 53.4415 26.3305H49.9812C50.3553 27.3916 50.9164 28.4007 51.6854 29.2433C52.8076 30.4916 54.3455 31.3134 55.9769 31.6775C57.5356 32.0208 59.1774 32.0208 60.7464 31.6983C62.4194 31.3446 64.0196 30.4916 65.1626 29.2017C66.4719 27.7453 67.1681 25.8312 67.4175 23.9171C67.5563 22.9689 67.554 22.0143 67.5517 21.0634C67.551 20.8041 67.5504 20.5451 67.5526 20.2866C67.5474 18.0448 67.5474 15.8056 67.5474 13.5665C67.5474 11.3273 67.5474 9.08809 67.5422 6.84632H64.2898V9.02048C63.3858 8.10504 62.3051 7.35605 61.0893 6.90873ZM54.3974 10.9554C55.2599 10.248 56.3198 9.77987 57.4213 9.61343C58.8033 9.39497 60.2476 9.70705 61.4218 10.4665C63.8222 11.9332 65.0068 15.0956 64.1443 17.7795C63.5209 19.7456 61.8998 21.3893 59.9151 21.9718C57.4317 22.7104 54.5949 21.5765 53.2129 19.4024C52.2984 18.0292 51.9763 16.292 52.2465 14.6691C52.4855 13.2232 53.2648 11.8812 54.3974 10.9554Z" fill="#64727F"/>
<path fill-rule="evenodd" clip-rule="evenodd" d="M134.232 6.71107C132.611 6.26375 130.866 6.29496 129.234 6.69026C127.353 7.15839 125.722 8.3755 124.527 9.88389C122.21 12.8591 121.96 17.197 123.716 20.4946C124.465 21.899 125.587 23.0953 126.948 23.9171C128.798 25.0406 131.032 25.4775 133.162 25.207C135.012 24.9678 136.737 24.0211 138.025 22.6792V24.8846H141.309V6.85671H138.025V9.03087C136.986 7.94899 135.677 7.10637 134.232 6.71107ZM126.574 12.9735C127.405 11.2674 129.068 9.99832 130.928 9.65503C132.559 9.32214 134.305 9.73825 135.635 10.7577C137.235 11.954 138.202 13.9305 138.202 15.9278C138.233 17.8732 137.225 19.7768 135.687 20.9523C134.544 21.8366 133.068 22.3255 131.614 22.1695C129.93 22.0342 128.32 21.1708 127.291 19.8289C125.795 17.9148 125.504 15.1476 126.574 12.9735Z" fill="#64727F"/>
<path d="M164.481 6.62785C166.268 6.15972 168.18 6.21174 169.936 6.79429C171.609 7.34563 173.075 8.45872 174.103 9.88389C174.758 10.7785 175.236 11.7876 175.6 12.8278C174.415 12.8278 173.23 12.8278 172.046 12.8278C171.381 11.4963 170.259 10.3416 168.825 9.87348C167.391 9.40536 165.759 9.39496 164.377 10.0295C162.933 10.6849 161.821 11.9748 161.291 13.4624C160.605 15.3765 160.771 17.6027 161.831 19.3503C162.517 20.4946 163.608 21.3893 164.876 21.8262C166.632 22.4399 168.71 22.1903 170.196 21.046C170.996 20.4426 171.609 19.6208 172.046 18.7262C173.23 18.7262 174.415 18.7262 175.6 18.7262C174.987 20.4738 174.031 22.1487 172.607 23.3658C171.402 24.406 169.874 25.0406 168.305 25.2486C166.497 25.4879 164.585 25.3215 162.922 24.5413C161.27 23.7715 159.899 22.4607 158.953 20.9107C157.779 18.9654 157.301 16.604 157.644 14.357C158.143 10.7473 160.959 7.56409 164.481 6.62785Z" fill="#64727F"/>
<path d="M47.1441 6.78389C47.6533 6.62785 48.1832 6.56544 48.7132 6.54463C48.7132 7.67852 48.7132 8.80201 48.7132 9.93591C47.6221 10.0295 46.4375 10.2896 45.679 11.1322C44.8477 12.0581 44.6918 13.3688 44.6606 14.5547C44.6502 17.9876 44.6606 21.4309 44.6606 24.8638C43.5696 24.8638 42.4889 24.8638 41.4082 24.8638C41.4082 18.851 41.4082 12.8487 41.4082 6.83591C42.4265 6.83591 43.4449 6.83591 44.4632 6.83591C44.4632 7.52248 44.4632 8.21946 44.4632 8.90604C45.0971 7.9594 46.0115 7.12718 47.1441 6.78389Z" fill="#64727F"/>
<path d="M102.404 6.60705C103.849 6.45101 105.397 6.60705 106.665 7.37685C107.548 7.91779 108.223 8.75 108.701 9.66544C109.387 8.32349 110.593 7.23121 112.068 6.83591C114.105 6.28457 116.443 6.48222 118.209 7.70974C119.539 8.62517 120.391 10.1128 120.745 11.6628C121.046 12.9215 120.973 14.2218 120.984 15.5013C120.984 18.6222 120.984 21.7534 120.984 24.8742C119.893 24.8742 118.812 24.8846 117.721 24.8742C117.731 21.7846 117.721 18.7054 117.721 15.6158C117.71 14.6067 117.773 13.5873 117.534 12.599C117.316 11.6107 116.806 10.6433 115.944 10.0711C115.081 9.499 113.99 9.41578 113.003 9.57182C112.255 9.68625 111.528 10.0399 111.06 10.6433C110.457 11.4027 110.229 12.3805 110.104 13.3168C109.948 14.5235 109.99 15.7406 109.99 16.9577C109.99 19.6 109.99 22.2319 109.99 24.8742C108.94 24.8742 107.891 24.8742 106.841 24.8742C106.841 21.8886 106.841 18.903 106.841 15.9175C106.831 14.6171 106.779 13.296 106.394 12.0477C106.135 11.2362 105.678 10.4352 104.919 9.97752C104.046 9.45739 102.976 9.40537 101.999 9.58222C101.064 9.74866 100.222 10.3416 99.7546 11.1738C99.048 12.4222 98.9025 13.8889 98.8713 15.2933C98.8609 18.4869 98.8713 21.6805 98.8713 24.8742C97.8426 24.8742 96.8139 24.8742 95.7852 24.8742C95.7852 18.8614 95.7852 12.8591 95.7852 6.84631C96.7515 6.84631 97.7075 6.84631 98.6739 6.84631C98.6739 7.5537 98.6739 8.25068 98.6739 8.95806C99.526 7.73054 100.877 6.7839 102.404 6.60705Z" fill="#64727F"/>
<rect x="152.375" y="6.8567" width="3.22125" height="18.0279" fill="#64727F"/>
<path fill-rule="evenodd" clip-rule="evenodd" d="M176.971 5.53557C176.649 5.36913 176.337 5.2859 176.005 5.2859C175.672 5.2859 175.35 5.36913 175.017 5.53557C174.706 5.71241 174.467 5.95168 174.29 6.26376C174.113 6.57584 174.03 6.89832 174.03 7.24161C174.03 7.5849 174.113 7.90738 174.29 8.21946C174.467 8.53154 174.706 8.7708 175.017 8.94765C175.329 9.12449 175.651 9.20772 175.994 9.20772C176.337 9.20772 176.659 9.12449 176.971 8.94765C177.283 8.7708 177.522 8.53154 177.698 8.21946C177.875 7.90738 177.958 7.57449 177.958 7.24161C177.958 6.90872 177.875 6.57584 177.698 6.26376C177.532 5.94127 177.283 5.70201 176.971 5.53557ZM175.204 5.81644C175.464 5.68121 175.734 5.60839 176.005 5.60839C176.275 5.60839 176.545 5.68121 176.805 5.81644C177.064 5.95168 177.272 6.15973 177.418 6.4198C177.563 6.67986 177.636 6.96074 177.636 7.24161C177.636 7.52248 177.563 7.79295 177.418 8.05302C177.272 8.31309 177.075 8.51074 176.815 8.65637C176.555 8.80201 176.285 8.87483 176.005 8.87483C175.724 8.87483 175.454 8.80201 175.194 8.65637C174.934 8.51074 174.737 8.31309 174.591 8.05302C174.446 7.79295 174.373 7.52248 174.373 7.24161C174.373 6.95033 174.446 6.67986 174.591 6.4198C174.737 6.15973 174.945 5.96208 175.204 5.81644ZM175.142 8.32349V6.21174H175.87C176.119 6.21174 176.296 6.23255 176.41 6.27416C176.524 6.31577 176.607 6.37819 176.67 6.48221C176.732 6.57584 176.763 6.67986 176.763 6.79429C176.763 6.95033 176.711 7.08557 176.597 7.2C176.483 7.31443 176.337 7.37684 176.16 7.38725C176.233 7.41845 176.296 7.46006 176.337 7.50168C176.42 7.5849 176.524 7.72013 176.649 7.91778L176.909 8.33389H176.493L176.306 8.001C176.16 7.74094 176.036 7.57449 175.953 7.51208C175.89 7.46006 175.797 7.43926 175.682 7.43926H175.485V8.33389H175.142V8.32349ZM175.901 7.13758H175.485V6.51342H175.87C176.036 6.51342 176.15 6.52382 176.212 6.54463C176.275 6.57584 176.327 6.60704 176.358 6.65906C176.389 6.71107 176.41 6.76309 176.41 6.8255C176.41 6.91913 176.379 6.99194 176.306 7.05436C176.233 7.10637 176.098 7.13758 175.901 7.13758Z" fill="#64727F"/>
<path d="M80.3962 3.97517C81.1651 3.85034 81.9756 3.95437 82.7654 3.92316C83.0355 3.90236 83.472 3.90236 83.4823 4.27685C83.4927 8.3339 83.4823 12.4013 83.4823 16.4688C83.5135 16.7081 83.3161 16.9265 83.0771 16.8953C82.2458 16.8953 81.4145 16.9057 80.5832 16.8953C80.365 16.9057 80.1987 16.6873 80.2195 16.4792C80.2195 12.4534 80.2195 8.42752 80.2195 4.39128C80.2091 4.22484 80.2507 4.04799 80.3962 3.97517Z" fill="#00B287"/>
<path d="M75.4189 6.71107H77.4348C77.7049 6.71107 77.6426 7.15839 77.6426 7.39765V9.01007C76.936 9.82148 76.032 10.4977 75.4189 11.3923C74.3486 12.9111 73.8914 14.8252 74.1304 16.6664C74.3174 18.1852 75.0136 19.6416 76.0424 20.7755C77.1854 22.0342 78.7648 22.8977 80.4482 23.1889C82.3394 23.5218 84.3553 23.1265 85.9659 22.0862C87.483 21.1292 88.6468 19.6208 89.1767 17.9044C89.8626 15.7198 89.4781 13.2232 88.1376 11.3611C87.5246 10.456 86.6101 9.81107 85.9347 8.96846V6.99195C85.9243 6.75269 86.1945 6.71107 86.3815 6.71107H88.1896C88.626 7.03356 88.9689 7.48087 89.3742 7.85537C90.6419 9.05168 91.6394 10.5393 92.2006 12.1933C93.2812 15.2725 92.8448 18.8302 91.0368 21.5453C89.0936 24.5621 85.6022 26.4762 82.0173 26.5282C78.6401 26.6322 75.263 25.0614 73.1536 22.4191C71.73 20.6507 70.878 18.4349 70.7844 16.1567C70.6805 13.8993 71.3144 11.6107 72.5925 9.73826C73.2783 8.67718 74.2343 7.84497 75.1072 6.95034C75.2215 6.85671 75.3046 6.75269 75.4189 6.71107Z" fill="#00B287"/>
</svg>
