<svg width="25" height="25" viewBox="0 0 25 25" fill="none" xmlns="http://www.w3.org/2000/svg">
<path fill-rule="evenodd" clip-rule="evenodd" d="M0 12.5C0 5.60777 5.60777 0 12.5 0C19.3922 0 25 5.60777 25 12.5C25 19.3922 19.3922 25 12.5 25C5.60777 25 0 19.3922 0 12.5ZM11.4975 17.1366L19.4862 9.21053C19.9875 8.70927 19.9875 7.92606 19.4862 7.42481C18.985 6.92356 18.2018 6.92356 17.7005 7.42481L10.5576 14.5677L7.20551 11.4975C6.70426 11.0276 5.92105 11.0589 5.45113 11.5602C5.01253 12.0614 5.04386 12.8446 5.54511 13.3145L9.77444 17.1679C10.2757 17.6378 11.0276 17.6065 11.4975 17.1366Z" fill="#204E9D"/>
</svg>
