<svg width="20" height="14" viewBox="0 0 20 14" fill="none" xmlns="http://www.w3.org/2000/svg">
<path fill-rule="evenodd" clip-rule="evenodd" d="M17.8252 0.428126C18.6818 0.658786 19.3574 1.33405 19.5878 2.19067C20.0163 3.75525 19.9998 7.01648 19.9998 7.01648C19.9998 7.01648 19.9998 10.2611 19.5881 11.8258C19.3574 12.6823 18.682 13.3576 17.8252 13.5881C16.2601 14 9.99998 14 9.99998 14C9.99998 14 3.7561 14 2.17468 13.5718C1.31787 13.3411 0.642577 12.6658 0.411864 11.8093C0 10.2611 0 7 0 7C0 7 0 3.75525 0.411864 2.19067C0.642333 1.33417 1.33435 0.64231 2.17456 0.411894C3.73962 0 9.99973 0 9.99973 0C9.99973 0 16.2601 0 17.8252 0.428126ZM13.2124 7L8.00657 4.00239V9.99761L13.2124 7Z" fill="white"/>
</svg>
