<svg width="48" height="39" viewBox="0 0 48 39" fill="none" xmlns="http://www.w3.org/2000/svg">
<path opacity="0.2" d="M12.5477 22.6466C13.8477 23.2466 14.8477 24.1966 15.5477 25.4966C16.3477 26.6966 16.7477 28.0466 16.7477 29.5466C16.7477 31.9466 15.8977 33.9966 14.1977 35.6966C12.5977 37.2966 10.6477 38.0966 8.34766 38.0966C6.14766 38.0966 4.29766 37.3966 2.79766 35.9966C1.39766 34.4966 0.697657 32.6466 0.697657 30.4466C0.697657 29.1466 0.897657 27.9466 1.29766 26.8466C1.69766 25.7466 2.39766 24.2966 3.39766 22.4966L14.9477 0.746563H22.1477L12.5477 22.6466ZM38.0477 22.6466C39.3477 23.2466 40.3477 24.1966 41.0477 25.4966C41.8477 26.6966 42.2477 28.0466 42.2477 29.5466C42.2477 31.9466 41.3977 33.9966 39.6977 35.6966C38.0977 37.2966 36.1477 38.0966 33.8477 38.0966C31.6477 38.0966 29.7977 37.3966 28.2977 35.9966C26.8977 34.4966 26.1977 32.6466 26.1977 30.4466C26.1977 29.1466 26.3977 27.9466 26.7977 26.8466C27.1977 25.7466 27.8977 24.2966 28.8977 22.4966L40.4477 0.746563H47.6477L38.0477 22.6466Z" fill="black" fill-opacity="0.45501"/>
</svg>
