<svg width="18" height="18" viewBox="0 0 18 18" fill="none" xmlns="http://www.w3.org/2000/svg">
<path fill-rule="evenodd" clip-rule="evenodd" d="M1.8 0H16.2C17.19 0 18 0.81 18 1.8V16.2C18 17.19 17.19 18 16.2 18H1.8C0.81 18 0 17.19 0 16.2V1.8C0 0.81 0.81 0 1.8 0ZM5.4 15.3V7.2H2.7V15.3H5.4ZM4.05 5.67C3.15 5.67 2.43 4.95 2.43 4.05C2.43 3.15 3.15 2.43 4.05 2.43C4.95 2.43 5.67 3.15 5.67 4.05C5.67 4.95 4.95 5.67 4.05 5.67ZM12.6 15.3H15.3V10.17C15.3 8.46 13.86 7.02 12.15 7.02C11.34 7.02 10.35 7.56 9.9 8.28V7.2H7.2V15.3H9.9V10.53C9.9 9.81004 10.53 9.18 11.25 9.18C11.97 9.18 12.6 9.81004 12.6 10.53V15.3Z" fill="#204E9D"/>
</svg>
